<?xml version="1.0" encoding="utf-8"?>
<!-- Generator: Adobe Illustrator 27.0.0, SVG Export Plug-In . SVG Version: 6.00 Build 0)  -->
<svg version="1.1" id="Ebene_1" xmlns="http://www.w3.org/2000/svg" xmlns:xlink="http://www.w3.org/1999/xlink" x="0px" y="0px"
	 viewBox="0 0 841.9 595.3" style="enable-background:new 0 0 841.9 595.3;" xml:space="preserve">
<style type="text/css">
	.st0{fill-rule:evenodd;clip-rule:evenodd;fill:#3F4244;}
	.st1{fill:none;}
</style>
<path class="st0" d="M305.1,407.1c0-4.4,0-8.8,0-13.3c0.1-7,0.2-14,0.4-21.1c0.1-3.3,0.6-6.5,0.8-9.8c0.1-1.3-0.1-2.7,0-4
	c0.3-4.9,0.8-9.7,1-14.5c0.2-4.9,0-9.9,0-14.8c0-5.5-0.1-11.1,0-16.6c0.1-6.8,0.3-13.6,0.5-20.4c0.1-5.2,0.3-10.3,0.3-15.5
	c0-4.4-0.4-8.9-0.3-13.3c0.1-6.1,0.5-12.2,0.7-18.3c0.1-2.5,0-4.9,0.2-7.4c0.2-3.1,0.5-6.2,0.6-9.3c0-1.5-0.3-3-0.5-4.5
	c0-0.4,0-0.9,0-1.3c0.2-1.5,0.6-3.1,0.6-4.6c0.2-5.5,0.3-10.9,0.4-16.4c0.2-9,0.3-18.1,0.5-27.1c0.2-10.2,0.4-20.5,0.5-30.7
	c0.1-5.4,0-10.8-0.1-16.1c0-1.4-0.2-2.8-0.5-4.2c-0.1-0.6-0.6-1.4-1.1-1.5c-5.4-1.6-7.4-5.8-8.6-10.7c-0.5-2.2-0.9-4.5-1.5-6.7
	c-0.1-0.4-1.3-0.9-1.9-0.8c-2.7,0.2-5.3,0.7-8,1c-2.3,0.3-4.6,0.5-6.9,0.6c-1,0-2.2-0.2-2.4-1.5c-0.4-2.7-0.7-5.3-0.9-8
	c-0.1-1.6,0.9-2.5,2.3-2.9c1.7-0.4,3.4-0.6,5.1-0.7c3-0.1,6-0.2,8.9,0c2.2,0.1,3.1-1.3,3.8-2.8c0.6-1.2,1-2.6,1.3-4
	c1-4.7,2.2-9.4,4.9-13.5c1.5-2.2,2.5-4.7,4.1-6.9c2.1-2.9,5.1-3.6,8.6-3.3c3.6,0.3,7.2,0.8,10.7,0.7c7.6-0.3,15,0.7,22.5,1.2
	c4.4,0.3,8.9-0.1,13.3-0.2c4,0,8.1-0.2,12.1,0c11.9,0.4,23.9,0.8,35.8,1.4c4.4,0.2,8.8,1.2,13.2,1.1c6-0.1,11.7,1,17.6,1.6
	c1.8,0.2,2.5,1.2,3.1,2.5c0.7,1.7,1,3.5,1.5,5.3c1,3.7,2.1,7.3,2.8,11c0.7,4,1,8.1,0.3,12.2c-0.5,3.2-0.7,6.5-1.4,9.7
	c-0.4,2.1-1.2,4.2-2,6.1c-1,2.3-2.3,4.5-3.4,6.8c-0.2,0.3-0.5,0.6-0.6,0.9c-1,2.7-1,2.7-4,2.7c-2.4,0-4.8,0.2-7.2,0.2
	c-1.1,0-1.6,0.4-1.7,1.6c-0.1,4.2-0.1,8.4-0.4,12.5c-0.4,5.6-1.1,11.1-1.6,16.7c-0.4,4.6-0.8,9.2-1,13.9c-0.4,10-1.4,19.9-2.6,29.8
	c-0.5,4.4-0.6,9-1,13.4c-0.6,6-1.3,12-1.9,18c-0.2,1.8-0.3,3.6-0.3,5.4c-0.2,9.2-1.3,18.3-2.6,27.4c-0.5,3.3-0.6,6.7-0.9,10
	c-0.8,7.2-1.4,14.4-1.5,21.7c-0.2,8.6-0.9,17.2-1.7,25.7c-0.9,10.8-2.1,21.5-3.2,32.3c-0.8,7.4-1.9,14.8-2.5,22.3
	c-0.5,5.9-0.5,11.9-0.5,17.9c0,2.2,0.3,4.3,0.5,6.5c0.2,1.7,0.6,1.9,2.3,1.4c4.6-1.3,9.1-2.8,13.7-4c4-1,8.2-1.5,12.2-2.7
	c5.5-1.6,10.8-3.7,16.3-5.5c7.4-2.5,14.9-4.9,22.3-7.3c3.5-1.1,7-2.1,10.5-3c0.7-0.2,1.8,0,2.4,0.5c1.3,0.9,2.4,2,3.6,3
	c1.5,1.3,3,2.7,4.6,3.8c1.3,0.9,1.8,2.1,1.7,3.4c-0.2,4.5-0.3,9-1,13.4c-0.9,5.9-2.4,11.7-3.4,17.5c-0.8,4.7-1.6,9.4-1.7,14.1
	c0,2.8,1.5,5.5,2.3,8.3c0.6,2.2,1.2,4.3,1.8,6.5c0.8,2.9,1.5,5.8,2.2,8.7c1.8,7.3,3.5,14.6,5.2,21.9c0.4,1.8,1.1,3.6,1.6,5.4
	c0.4,1.2,0.6,2.4-1.1,2.8c-1.4,0.3-2.5-0.6-2.8-2.2s-0.4-3.2-0.8-4.8c-1.6-7-3.2-13.9-5-20.8c-1.4-5.2-3.1-10.2-4.6-15.4
	c-0.1-0.3-0.3-0.5-0.4-0.7c-0.2,0.3-0.5,0.5-0.5,0.8c-0.5,3-1.1,6-1.5,9c-0.6,4.7-1,9.3-1.5,14c-0.7,6.2-1.4,12.3-2,18.5
	c-0.2,1.6,0.1,3.3,0.1,4.9c0,2.2-0.1,4.5-0.2,6.7v3.8c0,4.2-0.4,4.9-4.5,6c-7.6,1.9-15.3,3.5-23,5.4c-4.4,1.1-8.7,2.5-13.1,3.8
	c-2.6,0.8-5.3,1.5-8,2.2c-1.5,0.4-2.5,1.3-3.2,2.8c-1.4,3.1-0.9,6.5-1.3,9.7c-0.6,5.9-1.2,11.9-1.8,17.8c-0.1,1.6-0.1,3.1-0.1,4.7
	c0,0.8,0.1,1.7-0.1,2.5c-0.4,2-1.7,2.7-3.2,1.4c-2.5-2.2-4.8-4.7-7.1-7.1c-0.2-0.2-0.8-2.4,0.6-3.1s4,2.4,4.5,3.2
	c0.5,0.6,1.1,1.1,1.6,1.7c0.2-0.7,0.5-1.4,0.6-2.1c0.5-5,1-10.1,1.5-15.1c0.3-3.8,0.5-7.6,0.8-11.4c0.1-1.7-0.2-2.1-1.8-1.6
	c-2.8,0.8-5.5,1.9-8.2,2.8c-4.4,1.3-8.8,2.5-13.1,3.7c-1.8,0.5-3.6,1-5.3,1.9c-0.7,0.3-1.2,1.5-1.3,2.3c-0.6,3.9-1.1,7.8-1.5,11.7
	c-0.5,4.4-0.8,8.7-1.2,13.1c-0.1,1,0,2-0.3,2.9c-0.5,1.8-2,2-3.4,0.9c-1.6-1.2-3.3-2.2-5-3.3c-0.3-0.2-0.7-0.2-1-0.4
	c-1-0.6-1.9-1.4-1.2-2.7c0.6-1.3,1.8-1.3,2.9-0.8c1.1,0.4,2.1,1.1,3.2,1.7c1.1,0.7,1.5,0.4,1.7-0.9c0.6-4.9,1.4-9.7,2-14.6
	c0.3-2.3,0.3-4.6,0.5-6.9c0.1-1.2-0.5-1.5-1.5-1.1c-4.9,1.5-9.9,2.9-14.8,4.4c-1.7,0.5-3.4,1.1-5.2,1.3c-0.9,0.1-2.1-0.4-2.8-1
	c-2.6-2.1-6.7-5.7-9.1-7.7c-2.4-1.9-2.7-3-2.6-5.4c0.2-7,0.3-14.1,0.5-21.1c0.1-2.4,0.4-4.8,0.6-7.1c0-0.3-0.6-0.5-0.7-0.2
	c-2.2,4.8-4.4,9.6-6.7,14.4c-1.6,3.5-3.2,7.1-5,10.5c-1.1,2.2-2.6,4.1-4,6.2c-0.2,0.4-0.5,0.8-0.9,1s-2.7-0.2-2.3-1.9
	c0.3-1.4,14.3-29.4,17.3-34.9c3.1-5.7,4.3-10.8,5.1-17c0.2-1.3-0.1-1.6-1.6-1.8c-5.6-0.6-11,1.2-16.5,1.4c-5.4,0.2-10.7,0-16.1,0.1
	c-4,0.1-7.9,0.6-11.8,0.8c-3.6,0.2-4.8-1-5.3-4.5c-0.4-2.5-1.1-4.9-1.9-7.3c-2.8-8.6-4.2-17.5-5.3-26.4
	C305.1,427.1,305.2,417.1,305.1,407.1L305.1,407.1z M376,530.2c-0.1,0.7-0.1,1.5,0,2.2c0.3,2.5,1.7,3.2,4,2.2c1.3-0.6,2.6-1.1,4-1.5
	c4.9-1.4,9.8-2.6,14.6-4c6.4-1.9,12.8-4,19.2-5.8c9.5-2.7,18.4-7.3,28.2-9.3c8.1-1.7,16.1-3.9,24.1-6c3.5-0.9,7-2,10.4-3.2
	c0.8-0.3,1.6-1.5,1.7-2.3c0.3-3.2,0.4-6.4,0.5-9.6c0.2-4.4,0.2-8.8,0.6-13.2c0.6-6.4,1.4-12.8,2.2-19.1c0.5-4.1,1-8.1,1.6-12.2
	c0.4-2.9,0.9-5.9,1.3-8.8c0.7-4.7,1.1-9.4,2-14c1.2-6.3,2.5-12.6,4.1-18.8c1-3.8,0-7.6,0.7-11.3c0.2-1.2-0.5-1.6-1.6-1.3
	c-3.4,0.9-6.9,1.8-10.3,2.9c-8.8,2.7-17.5,5.6-26.2,8.3c-4.6,1.4-9.2,2.5-13.8,3.9c-4.5,1.3-8.9,2.8-13.4,4.2
	c-5.2,1.6-10.4,3.1-15.5,5c-8.8,3.2-17.6,6.7-26.3,10.1c-3,1.2-4.3,2.6-3.9,5.6c0.1,0.6,0,1.2-0.1,1.8c-0.7,5.8-1.5,11.7-2.2,17.5
	c-0.6,5.1-1,10.3-1.7,15.4c-0.9,6.8-2.3,13.5-2.4,20.4c-0.2,8.6-0.6,17.2-1,25.8C376.5,520,376.2,525.1,376,530.2L376,530.2z
	 M310.7,326.5c-0.1,0-0.4,6-0.4,9c0,2.5,0,2.6,2.5,2.5c6.8-0.3,13.6-0.6,20.4-0.9c5.5-0.3,11-0.5,16.5-1c3.8-0.3,7.6-1.2,11.5-1.6
	c7.2-0.7,14.5-1.1,21.6-2c8.2-1.1,16.4-0.8,24.6-0.7c2.4,0,3.4-0.6,3.6-2.9c0.2-2.1,0.4-4.2,0.5-6.2c0.6-8.2,1.4-16.4,1.7-24.6
	c0.3-7.5,0.3-15.1,1.5-22.6c0.6-3.9,0.8-7.9,1.1-11.8c0.7-7.8,1.5-15.6,2.3-23.3c0.4-4.3,0.7-8.6,1-12.9c0.2-3.1-0.1-3.4-3.3-3.5
	c-0.4,0-0.8,0-1.1,0c-2.8,0.1-5.7,0.4-8.5,0.4c-7.2-0.1-14.3-0.6-21.5-0.4c-8.1,0.2-16.1-0.2-24.1-1.1c-3.6-0.4-7.3-0.6-10.9-0.6
	c-4.8,0.1-9.5,0.4-14.2,0.7c-6.9,0.4-13.8,1-20.8,1.4c-1.6,0.1-2.3,0.7-2.3,2.5c0,4.5-0.3,9-0.5,13.4c-0.2,4.8-0.7,9.5-0.7,14.3
	c-0.2,16-0.4,32-0.5,48L310.7,326.5z M308.5,429.4c1,8.3,2,16.6,3.5,24.8c0.9,5.3,2.7,10.4,4,15.5c0.4,1.6,1.3,2,2.9,2
	c7.9-0.4,15.8-0.6,23.8-1c6.9-0.4,13.9-0.9,20.8-1.4c1.5-0.1,2.4-0.8,2.5-2.5c0.4-5.6,0.8-11.2,1.7-16.7c1.8-10.4,3-20.8,3.1-31.3
	c0-3.5,0.3-3.9,3.7-5.1c0.5-0.2,1-0.3,1.5-0.4c3.4-0.8,6.9-1.4,10.2-2.4c6-1.9,11.9-4.1,17.9-6.2c1.6-0.5,1.9-1.4,1.4-2.9
	c-0.4-1.3-0.7-2.6-0.7-3.9c-0.1-3.9-0.3-7.9,0-11.8c0.4-5.8,1.1-11.6,1.8-17.3c0.8-7.4,1.7-14.8,2.6-22.2c0.4-3.1,0.7-6.2,1-9.3
	c0.1-1.1-0.3-1.6-1.5-1.6c-3.3-0.2-6.7-0.7-10-0.6c-5.4,0.1-10.7,0.5-16.1,0.8c-3.7,0.2-7.4,0.6-11.1,0.9c-3.6,0.3-7.1,0.7-10.7,1
	c-7.3,0.7-14.5,1.5-21.8,2.1c-5.6,0.4-11.3,0.5-16.9,0.9c-3.5,0.3-6.9,0.9-10.4,1.3c-1,0.1-1.4,0.5-1.5,1.5
	c-0.3,5.5-0.6,11-0.9,16.5c-0.1,1.5,0,3-0.1,4.5c-0.4,6.7-1,13.4-1.1,20.1C308,395.8,308,425.7,308.5,429.4L308.5,429.4z
	 M417.1,220.1c3.2,0.1,3.4,0,3.5-3.5c0-0.2,0-0.5,0-0.7c0.3-4,0.6-8,0.9-12c0.4-4.3,0.9-8.6,1.4-12.9c0.4-3.7,0.6-7.4,1-11.1
	c0.4-4.8,0.8-9.5,1.2-14.3s0.8-9.7,1.3-14.5c0.3-2.8,0.6-5.5,0.8-8.3c0.1-2.1,0-4.2,0-6.3c0.1-3.3,0.2-6.5,0.3-9.8
	c0-1.1-0.5-1.6-1.6-1.7c-2.5-0.1-5.1-0.3-7.6-0.3c-9-0.1-18.1-0.1-27.1-0.1c-10,0.1-19.9,0.4-29.9,0.4c-4.7,0-9.4-0.5-14.1-0.8
	c-5.5-0.4-11-0.8-16.5-1.3c-4.2-0.4-8.5-1-12.5,1c-1.2,0.6-1.8-0.1-2.4-1c-0.3-0.4-0.5-0.8-0.8-1.2c-0.3,0.5-0.7,0.9-0.9,1.5
	c-0.2,0.5-0.3,1.2-0.2,1.8c0.1,2.1,0.4,4.2,0.4,6.3c0,2.8-0.3,5.7-0.3,8.5c-0.1,5.3,0,10.6-0.1,15.9c0,1.7-0.4,3.4-0.4,5.1
	c0,7.1,0.2,14.3,0.1,21.4c-0.1,5.6-0.5,11.2-0.6,16.8c-0.1,2.8,0.3,5.7,0.3,8.5c0,4-0.3,8-0.4,12c-0.1,1.4,0.7,1.6,1.9,1.6
	c8.2-0.6,16.5-1.4,24.7-1.7c7.5-0.2,15.1,0,22.6,0.5c5.9,0.4,11.7,1.2,17.6,0.9c7.4-0.4,14.8-0.1,22.2-0.1c1.6,0,3.1,0.3,4.7,0.2
	C410,220.8,413.4,220.4,417.1,220.1L417.1,220.1z M377.8,121.5c7.2,0,14.4-0.1,21.6,0c8.8,0.1,17.6,0.5,26.5,0.6
	c4.4,0.1,8.8-0.2,13.2-0.4c0.5,0,1.2-0.5,1.5-1c0.7-1.1,1.2-2.4,1.9-3.5c2.2-3,3.5-6.4,4-10.1c0.5-4.1,1.3-8.1,1.6-12.2
	c0.4-6.5-2.1-12.6-3.5-18.8c-0.6-2.4-1.7-4.9-4.5-5.3c-5.6-0.8-11.2-1.3-16.9-1.8c-2.7-0.2-20.8-1.9-27.2-1.9
	c-5.1,0-10.3-0.1-15.4-0.1c-4.8,0-9.7,0-14.5,0c-6.4-0.1-12.8-0.1-19.3-0.3c-4.5-0.2-8.9-0.7-13.4-0.9c-3.9-0.1-7.9,0-11.8,0.1
	c-1.2,0-1,0.8-0.8,1.6c0.5,1.8,1.2,3.6,1.4,5.4c0.5,4.1,1.2,8.2,0.8,12.3c-0.7,7.9-2.1,15.8-3.4,23.7c-0.3,2.2-1,4.4-1.9,6.4
	c-1.2,2.8-0.5,4.1,2.6,4.2c2.1,0.1,4.2-0.1,6.3,0.1c3.4,0.2,17.5,1.6,30.1,2.1C367.7,122,377.8,121.6,377.8,121.5L377.8,121.5z
	 M442.5,396.6c-6.9,2.1-13.9,3.8-20.9,5.4c-7.6,1.7-14.7,4.9-22,7.5c-5.5,1.9-11,3.8-16.5,5.6c-2.5,0.8-5,1.4-7.5,2.2
	c-0.4,0.1-0.7,0.5-1,0.7c0.3,0.3,0.7,0.5,1,0.8c0.8,0.6,1.7,1.1,2.3,1.9c1.1,1.2,1.9,2.7,3,3.9c0.6,0.7,1.5,1.2,2.1,1.7
	c1-0.2,1.6-0.3,2.2-0.5l4.8-1.8c5.4-1.9,10.8-3.8,16.2-5.7c4.2-1.5,8.3-3.3,12.6-4.6c7.8-2.5,15.7-4.7,23.6-7
	c2.4-0.7,4.8-1.6,7.3-2.3c5.9-1.7,11.8-3.3,17.6-5.1c8.2-2.6,16.4-5.4,24.6-8.2c0.7-0.3,1.4-0.7,2.1-1.1c0.8-0.4,0.8-0.9,0.1-1.5
	c-1.7-1.4-3.3-3-5.1-4.4c-1.4-1.1-5.9-0.2-6.4-0.1c-6.2,1.6-12.4,3-18.5,5L442.5,396.6z M381.3,431.7c-0.3-0.6-0.7-1.7-1.3-2.7
	c-0.8-1.1-1.7-2.1-2.6-3.1c-1-1.1-2-2.1-3-3.2c-0.2,1.5-0.6,3-0.7,4.5c-0.4,3.6-0.6,7.1-1,10.7c-0.8,6.3-1.8,12.5-2.6,18.8
	c-0.7,6.1-1.3,12.2-1.9,18.2c0,0.3-0.1,0.6-0.2,0.9c0.2-0.2,0.5-0.4,0.7-0.7c1.4-1.9,2.8-3.9,4.2-5.8c0.7-0.9,1.5-1.3,2.4-0.4
	c1.2,1.3,1.1,2.9,0,4.2c-1.6,2-3.4,3.8-4.4,6.1c-1.7,3.8-4.4,7.1-5.1,11.6c-0.8,5.8-1.3,11.6-1.5,17.4c-0.2,5.7-0.3,11.4-0.4,17.1
	c0,0.7,0.4,1.6,0.9,2c2.2,1.9,4.5,3.6,6.7,5.4c0.3,0.2,0.5,0.4,0.8,0.6c0.1-0.3,0.2-0.5,0.2-0.8c0.3-2.8,0.7-5.6,0.9-8.5
	c0.3-7.8,0.5-15.5,0.9-23.3c0.3-6.6,0.8-13.1,1.4-19.7c0.3-3.5,0.9-6.9,1.3-10.4c0.7-6,1.3-12,1.9-18
	C379.7,445.8,380.5,439.1,381.3,431.7L381.3,431.7z M319.8,82.6c-0.3-2.2-0.5-4-0.8-5.9c-0.5-2.7-1-5.4-1.8-8s-3.1-2.9-4.7-0.7
	c-1.7,2.3-3.5,4.7-4.8,7.3c-2.1,4.3-3.6,8.8-4.4,13.6c-0.5,3-0.1,3.5,2.9,3.2c0.5,0,1-0.2,1.5-0.3c1.3-0.3,2.3,0.3,2.8,1.3
	c1.5,2.6,2,5.4,1,8.4c-0.4,1.2-0.8,1.9-2.2,2.2s-2.7,0.8-4.3,0.4c-1.8-0.4-2.3,0.2-1.9,1.9c0.6,2.9,1.4,5.8,2.2,8.6
	c0.7,2.3,2.5,3.5,4.7,3.9c0.8,0.2,2.2-0.3,2.5-0.8c1.3-2.5,2.7-5.1,3.2-7.8c1.2-5.7,1.9-11.4,2.7-17.2
	C319,89.3,319.4,85.8,319.8,82.6L319.8,82.6z M303.3,100.7c5.5,0.4,6.3-0.4,5.4-3.4c-0.5-1.7-2-1.7-3.1-1.7
	c-6.8,0-13.6,0.1-20.3,0.3c-1.9,0-2.9,1.4-2.8,3.5c0.1,1.9,1.6,1.9,2.9,2c2.5,0.1,5.1-0.1,7.6-0.2C297,101,301,100.8,303.3,100.7z"
	/>
<path class="st1" d="M373.5,288c0,1.2,0,2.4,0.1,3.6c0.2,1.9,0.6,2.2,2.4,1.9c1-0.1,2.1-0.2,3.1-0.2c4.8-0.2,9.7-0.3,14.5-0.5
	c2.3-0.1,4.6-1,7-0.3c1.1,0.3,1.8-0.5,1.9-1.9c0.3-4.3,0.9-8.6,1.3-12.9c0.2-2.7,0.5-5.5,0.5-8.2c0-3.2-1-4-4.1-3.6
	c-2.9,0.4-5.7,0.9-8.6,1.1c-4.4,0.4-8.9,0.5-13.4,0.9c-4.9,0.4-5.3,0.9-5.2,5.9C373.1,278.5,373.3,283.2,373.5,288L373.5,288z
	 M330.7,269.2c-0.7,0.1-1.3,0.3-1.8,0.2c-1.5-0.3-2.2,0.4-2.2,1.7c0,1.4,1.1,1.6,2.3,1.6c3.4,0,6.9-0.2,10.3-0.2
	c7.3,0,14.6,0.1,21.9,0.2c0.7,0,1.7,0,1.9-0.4c0.3-0.5,0.3-1.6-0.1-2.1s-1.4-0.7-2.1-0.7c-0.8-0.1-1.6,0.2-2.4,0.2
	c-3.4-0.1-6.7-0.3-10.1-0.3c-3.9,0-7.7,0.2-11.6,0.2C334.7,269.6,332.6,269.3,330.7,269.2L330.7,269.2z"/>
<path class="st1" d="M369.4,390.9c-1.5,0.2-3.8,0.3-6,0.7c-0.7,0.1-1.6,0.7-2,1.3c-0.3,0.4,0,1.6,0.5,1.9c0.6,0.5,1.7,0.8,2.3,0.5
	c4.1-1.4,8.1-1.6,12.3-0.8c0.7,0.1,2.1-0.6,2.3-1.1c0.2-1-0.6-1.9-1.9-2C374.7,391.4,372.4,391.2,369.4,390.9L369.4,390.9z
	 M368.8,410.5c0.7,0.1,1.1,0.2,1.4,0.1c0.7-0.4,1.8-0.8,1.9-1.4c0.2-1.1-0.8-1.4-1.8-1.4c-2.5,0-5-0.1-7.5,0.1
	c-0.5,0-1.3,0.7-1.5,1.3c-0.3,0.9,0.2,1.6,1.2,1.7c1.2,0.1,2.3,0.2,3.5,0.2C367.1,410.9,368.1,410.6,368.8,410.5L368.8,410.5z"/>
<path class="st1" d="M403.9,138.5c-0.2-1-0.3-2.6-0.7-4.2c-0.3-1.4-1.3-2.1-2.8-1.6c-1.8,0.5-3.6,0.9-5.4,1.2
	c-1.5,0.3-1.8,1.1-1.5,2.4c0.3,1.4,0.5,2.9,0.6,4.4c0.2,2.3,0.5,2.7,2.9,2.6c3.2-0.1,3.2-0.1,2.9,3.2v0.4c0.1,1.5-0.7,2-2.1,1.9
	c-1-0.1-2.1-0.1-3.1-0.1c-1.3,0-1.8,0.9-1.5,2c0.2,0.6,1,1.4,1.5,1.4c2.2,0.1,4.4,0.1,6.7,0c1-0.1,1.8-0.7,1.8-1.9
	C403.5,146.4,403.7,142.8,403.9,138.5L403.9,138.5z M341.5,142h0.1c-0.2,1.9-0.3,3.9-0.6,5.8c-0.2,1.7-1.3,2.1-2.7,1.1
	c-0.4-0.3-0.6-1-1-1.1c-0.6-0.2-1.4-0.4-1.8-0.1s-0.8,1.2-0.6,1.7c0.3,0.8,0.8,1.7,1.4,2.1c1.2,0.7,2.6,1.2,3.9,1.6
	c2.4,0.7,3.5-0.2,3.8-2.7c0.3-3,0.5-6.1,0.8-9.1c0.2-1.7,0.5-3.4,0.5-5.1c0-0.6-0.6-1.6-1-1.7c-2.5-0.4-5-0.7-7.5-0.9
	c-1.3-0.1-1.9,1.2-1.3,2.4c0.5,1,1.2,1.3,2.3,1.3c3.7,0,3.7,0.1,3.7,3.8L341.5,142z M385.3,178.6c2.1-0.2,4.2-0.4,6.2-0.7
	c4.1-0.5,8.1-1,12.2-1.5c1-0.1,2.7,0.6,2.7-1.1s-1.7-1.4-2.8-1.3c-4.5,0.2-9.1,0.6-13.6,0.9c-2.1,0.1-4.2,0.4-6.2,0.5
	c-1.2,0.1-1.6,0.9-1.5,1.8c0.1,1,0.6,1.7,1.8,1.6C384.4,178.7,384.8,178.6,385.3,178.6L385.3,178.6z"/>
<g>
	<path class="st0" d="M373.5,288c-0.2-4.8-0.4-9.5-0.6-14.3c-0.2-4.9,0.2-5.5,5.2-5.9c4.4-0.4,8.9-0.5,13.4-0.9
		c2.9-0.2,5.7-0.7,8.6-1.1c3.1-0.4,4.1,0.4,4.1,3.6c0,2.7-0.2,5.5-0.5,8.2c-0.4,4.3-0.9,8.6-1.3,12.9c-0.1,1.4-0.7,2.2-1.9,1.9
		c-2.4-0.6-4.7,0.2-7,0.3c-4.8,0.2-9.7,0.3-14.5,0.5c-1,0-2.1,0.1-3.1,0.2c-1.8,0.3-2.3,0-2.4-1.9
		C373.4,290.4,373.5,289.2,373.5,288L373.5,288z M376.3,281.2c0.1,2.2,0.2,4.8,0.5,7.4c0,0.5,0.6,1.3,1,1.3c2.6,0.4,5.3,0.9,8,0.8
		c4-0.1,8-0.5,12-0.8c1.2-0.1,1.7-0.6,1.7-1.8c0-1.4,0.1-2.8,0.3-4.2c0.5-3.8,1.2-7.6,1.5-11.5c0.2-2.8-0.9-3.7-3.7-3.4
		c-2.5,0.3-5,0.7-7.5,1c-4,0.5-7.9,0.9-11.9,1.4c-1.2,0.2-2,0.7-1.9,2.2C376.4,275.9,376.3,278.3,376.3,281.2z"/>
	<path class="st0" d="M331.5,242.6c0.1-2.3,0.2-5.3,0.5-8.4c0.1-0.7,2.2-1.4,2.8-1c0.3,0.2,0.6,0.7,0.8,1.1c0.4,0.6,1.7,2.6,2,2.5
		c1-0.2,3.6-3.5,4.5-4c1.6-0.9,2.3-0.6,2.2,1.3c-0.1,3.5-0.3,7-0.5,10.5c-0.1,1-0.2,3.7-0.4,4.6c-0.1,0.4-0.5,1.1-0.8,1.2
		c-0.4,0.1-1-0.3-1.2-0.7c-0.3-0.6-0.3-3-0.3-3.6c0-1.9,0.1-3.9,0.1-5.8c0-0.3-0.1-1.1-0.2-1.4c-0.3,0.1-0.7,0.6-1,0.8
		c-0.2,0.2-0.4,0.4-0.6,0.7c-1.4,1.7-1.7,1.7-3.2,0c-0.4-0.5-0.9-0.8-1.4-1.2c-0.1,0.7-0.4,1.4-0.4,2.1c-0.1,1.6,0,3.3,0,4.9
		c0,1,0.1,1.9,0.2,2.9c0.1,1.1,0,2.3-1.4,2.4s-1.6-1-1.6-2.1C331.5,247.2,331.5,245.3,331.5,242.6z"/>
	<path class="st0" d="M359.4,251.1c-0.4,0.4-2.9,0.8-3.3,0.1c-0.3-0.6-1-4.1-1-4.9c0-1.5-0.8-1.7-2.1-1.5c-3.2,0.6-3.9,1.9-4.4,5.2
		c-0.2,1.3-0.6,1.2-1.9,0.9c-1.2-0.3-1.5-0.5-1.1-1.8c1.6-4.5,3.2-9.6,4.7-14.1c0.2-0.5,0.5-1.1,0.9-1.5s1.1-1,1.6-0.9
		s0.9,0.8,1.2,1.4c1.2,2.7,2.5,5.4,3.5,8.2C358.2,244,359,248.7,359.4,251.1L359.4,251.1z M351.4,242c0.2,0.2,2,0,2.3-0.3
		c0.3-0.2-0.7-3.1-1-3.2s-0.8,1.7-1,2.3C351.6,241.2,351.2,241.8,351.4,242z"/>
	<path class="st0" d="M330.7,269.2c1.9,0.1,4,0.4,6.1,0.4c3.9,0,7.7-0.2,11.6-0.2c3.4,0,6.7,0.2,10.1,0.3c0.8,0,1.6-0.2,2.4-0.2
		c0.7,0.1,1.7,0.2,2.1,0.7c0.4,0.4,0.4,1.6,0.1,2.1c-0.2,0.4-1.2,0.4-1.9,0.4c-7.3,0-14.6-0.1-21.9-0.2c-3.4,0-6.9,0.2-10.3,0.2
		c-1.1,0-2.2-0.3-2.3-1.6c0-1.4,0.8-2,2.2-1.7C329.4,269.5,330,269.3,330.7,269.2L330.7,269.2z"/>
	<path class="st0" d="M346.5,279.5c4.4-0.2,8.8-0.8,13.1-1.2c0.9-0.1,1.9-0.3,2.7,0c0.6,0.2,0.1,3-0.4,2.9c-4.2-1-8.2,0.6-12.3,1
		c-6.1,0.7-12.2,0.8-18.3,0.5c-0.5,0-1.4-0.5-1.4-0.7c0.1-0.7,0.4-1.7,0.8-1.8C332.1,279.8,342.7,279.7,346.5,279.5L346.5,279.5z"/>
	<path class="st0" d="M403.3,236.6c-0.3,4-0.6,8-0.9,12c0,0.5-0.4,1.1-0.8,1.5c-0.3,0.3-1,0.3-1.4,0.1c-0.3-0.1-0.5-0.7-0.5-1.1
		c0-0.5,0.2-1,0.2-1.5c0.1-1.6,0.5-3.5-1.7-3.5c-0.4,0-1.4,0.3-2.4,0.2s-0.9-1.1-0.8-1.6c0.1-0.4,0.8-0.9,1.4-1
		c1.2-0.2,2.7-0.4,3.3-1c0.5-0.5,0.3-1.4,0.2-2.3c-0.1-1-0.5-1.6-1.5-1.6c-1.6,0-3.1,0.1-4.7,0.1c-0.9,0-1.9,0.2-1.9-1.2
		c-0.1-1.2,0.1-2.3,1.6-2.4c2.7-0.1,5.5-0.2,8.2-0.3c1.1,0,1.7,0.5,1.7,1.6L403.3,236.6z"/>
	<path class="st0" d="M357.8,290.8c0.6,0,1.2,0,1.7,0.2c0.3,0.1,0.6,0.7,0.6,1.1c0,0.3-0.5,0.5-0.9,0.7c-0.1,0.1-0.3,0-0.4,0
		c-4.4,0-8.8-0.1-13.1,0.1c-5.3,0.3-16.2,1.2-16.6,0.5c-0.5-1,0.4-1.6,1.4-1.8c2.7-0.5,5.4-1,8.1-1.3
		C340.7,290.1,353.5,290.8,357.8,290.8L357.8,290.8z"/>
	<path class="st0" d="M386.6,235c0-1.1-0.2-2.6,1.7-2.6c1.3,0,1.9,1.8,1.7,3.3c-0.3,2.8-0.4,5.6-0.7,8.4c-0.2,1.9-0.4,3.8-0.8,5.7
		c-0.1,0.4-2,0.2-2.1-0.3C386.3,248.5,386.5,238.8,386.6,235L386.6,235z"/>
	<path class="st0" d="M364.8,233c0-1.3,0.5-2,1.9-1.9c1.3,0.1,1.6,0.9,1.5,2.1c-0.3,3.9-0.6,12.8-1,16.7c0,1.5-2.3,0.4-2.3-0.1
		C364.7,247.7,364.8,234.8,364.8,233z"/>
	<path class="st0" d="M321.3,388.8c0-0.6-0.4-1.1-0.5-1.7c-0.5-2.1,1-3.4,3.1-3.3c2.5,0.1,5.1-0.2,7.6-0.5c3.7-0.4,7.4-1.1,11.1-1.6
		c3.5-0.4,3.9,0.2,3.8,3.7c-0.1,1.6,0.3,3.3,0.3,4.9c0,4.2,0.1,8.3-0.1,12.5c-0.1,3.5-0.3,7-0.7,10.4c-0.1,0.7-1.5,1.7-2.4,1.8
		c-2.7,0.3-5.5,0.2-8.2,0.2c-3.7,0.1-7.3,0.1-11,0.2c-1.3,0-1.7-0.6-1.7-1.8C322.5,410,321.7,393.4,321.3,388.8L321.3,388.8z
		 M334.7,412.6c1.9-0.1,3.8-0.2,5.6,0s2.6-0.5,2.7-2.3c0.4-7,0.8-14,1.1-21c0.1-1.2-0.2-2.5-0.5-3.7c-0.1-0.4-0.6-0.9-0.9-0.9
		c-0.8-0.1-1.7-0.1-2.5,0c-3.8,0.6-7.7,1.1-11.5,1.8c-4.8,0.9-4.3,0.4-4.2,5v1.8c0.1,5.5,0.2,11,0.5,16.5c0.1,2.1,1,2.8,3.1,2.8
		C330.3,412.7,332.5,412.6,334.7,412.6L334.7,412.6z"/>
	<path class="st0" d="M358,366.7c-0.2,0.4-1.3,0.6-1.9,0.4c-0.5-0.1-1-0.9-1-1.4c-0.1-3.3-0.1-6.5-0.1-9.8c0-2,0.5-3.8,1.6-4.3
		c0.8-0.3,5.4-0.2,6.2-0.2c0.9-0.1,2.4,0,2.8,0.6c0.6,0.9,0.7,2.4,0.4,3.5c-0.3,1-1.3,1.8-2.1,2.6c-0.7,0.7-0.8,1.2,0,1.8
		c1.5,1,3,1.9,4.4,3c0.6,0.5,1.3,1.4,1.1,2c-0.2,1-1.2,0.8-2,0.4c-2.3-1.2-4.6-2.5-6.9-3.7c-0.6-0.3-1.2-0.4-1.8-0.7v1.7v0.9v0.1
		C358.7,364.2,358.4,366,358,366.7z M361.5,353.8c-0.5,0-2.8,0.1-3.1,0.4c-0.6,0.6-0.3,1.6,0.1,2.1s2.5,0.3,2.5,0.3
		C363.8,355.6,363.5,353.7,361.5,353.8z"/>
	<path class="st0" d="M325.5,366.9c0.2-0.6,0.8-1.4,1.3-2.3c0.3-0.5,0.7-1.1,0.9-1.6c1.3-2.7,2.5-5.4,3.8-8.1c0.2-0.3,0.2-0.7,0.4-1
		c0.6-1.4,1.4-2.9,3.2-2.6c1.7,0.3,1.7,1.9,1.9,3.2c0.6,3.6,1.3,7.2,2,10.8c0.1,0.4,0.7,2.9-0.8,3s-2.1-3.1-2.4-4.1
		c-0.3-0.7-0.9-2-1.3-1.9c-1.2,0.1-2.5,0.5-3.3,1.3c-1.1,1.1-1.7,2.8-2.7,4.1c-0.3,0.5-1.2,1-1.5,0.9
		C326.2,368.3,325.1,367.9,325.5,366.9L325.5,366.9z M334.2,355.3c-0.4,0.8-1.7,3.5-1.8,4c0,0.1,2.8,0,2.9-0.3
		C335.3,358.8,334.4,356.1,334.2,355.3z"/>
	<path class="st0" d="M344.3,354.6c-0.1-1.5,0.5-2.4,1.9-2.8c0.8-0.3,1.7-0.7,2.5-0.8c1.6-0.2,3.3,0.1,4,1.7s0.3,3.3-1,4.5
		c-0.9,0.8-1.8,1.6-2.9,2.1c-1.1,0.6-1.5,1.3-1.4,2.5c0.1,1,0.2,3.1,0,4.1c-0.2,0.8-3.1,2-3.1,0.1
		C344.4,364.1,344.4,357.8,344.3,354.6L344.3,354.6z M347.7,353.9c-1.1,0.1-0.6,2.8-0.4,3c0.3-0.3,3.1-1.5,3.3-2.6
		C350.7,353.3,348.8,353.8,347.7,353.9z"/>
	<path class="st0" d="M369.4,390.9c3,0.2,5.2,0.4,7.5,0.6c1.3,0.1,2.1,0.9,1.9,2c-0.1,0.5-1.6,1.3-2.3,1.1
		c-4.2-0.8-8.3-0.6-12.3,0.8c-0.7,0.2-1.7-0.1-2.3-0.5c-0.4-0.3-0.7-1.5-0.5-1.9c0.4-0.6,1.3-1.2,2-1.3
		C365.6,391.2,367.9,391.1,369.4,390.9L369.4,390.9z"/>
	<path class="st0" d="M375.7,383c0.5,0,1.2-0.2,1.5,0.1c0.6,0.6,1.1,1.3,1.2,2.1c0,0.4-1.1,1.2-1.7,1.2c-3.9,0.2-7.7,0.3-11.6,0.5
		c-1.1,0.1-2.2,0.3-3.3,0.4c-1.3,0.1-2.6-0.2-2.7-1.7s1.3-1.7,2.6-1.7C362.6,383.9,372,383.3,375.7,383z"/>
	<path class="st0" d="M377,400.6c0.8,0,1.5,0.4,2.2,0.8c0.3,0.2,0.6,0.9,0.5,1.1c-0.2,0.4-0.7,0.8-1.2,0.9c-3.5,0.4-7,0.7-10.6,1
		c-1.2,0.1-2.4,0.1-3.6,0s-2.2-0.3-2.2-1.9s1.1-1.5,2.2-1.6C365.5,400.8,374,400.5,377,400.6z"/>
	<path class="st0" d="M383.3,361.1c0,0.7,0.1,1.5-0.2,2.2c-0.4,0.9-2.8,0.7-2.9-0.3c-0.2-3.5,0-7.1-0.3-10.6c-0.1-1.4,0-2.6,1.5-2.6
		c1.3,0,2.1,1,2.1,2.4C383.5,352.6,383.4,358.5,383.3,361.1z"/>
	<path class="st0" d="M368.8,410.5c-0.7,0.1-1.8,0.4-2.8,0.5c-1.2,0-2.3-0.1-3.5-0.2c-1.1-0.1-1.5-0.8-1.2-1.7
		c0.2-0.5,0.9-1.2,1.5-1.3c2.5-0.1,5-0.1,7.5-0.1c1,0,2,0.3,1.8,1.4c-0.1,0.6-1.2,1-1.9,1.4C369.9,410.7,369.5,410.5,368.8,410.5
		L368.8,410.5z"/>
	<path class="st0" d="M337,169.1c0-3.2,0.4-3.4,3.6-3.4c4.5,0,9.1-0.4,13.6-0.5c4.3-0.1,8.7,0,13,0h2.2c2.5-0.1,3.3,0.7,3,3.2
		c-0.3,2.9-0.8,5.8-1.1,8.6c-0.4,3.9-0.7,7.7-0.8,11.6c-0.1,2.7-0.2,3.1-2.8,3.1c-6.8-0.1-13.3,1.5-20,2.4c-2.9,0.4-5.9,0.2-8.9,0.3
		c-1.2,0-1.5-0.6-1.5-1.7c0-2.9,0-5.8,0-8.8C337.3,183.9,337,174.1,337,169.1L337,169.1z M340.7,189.5c0,1.7,0.8,2.1,2.2,2
		c2.2-0.2,4.5-0.2,6.7-0.5c5.4-0.6,10.8-1.5,16.2-2c1.4-0.2,1.7-0.6,1.8-1.9c0-2.6,0.2-5.2,0.3-7.8c0.2-3.1,0.4-6.1,0.6-9.2
		c0.1-1-0.3-1.7-1.3-1.7c-4.6-0.1-9.2-0.3-13.8-0.1c-3.2,0.1-6.3,1-9.5,1.3c-3.9,0.4-3.9,0.3-3.9,4.3v0.7
		C340.1,177.3,340.8,187.2,340.7,189.5L340.7,189.5z"/>
	<path class="st0" d="M403.9,138.5c-0.2,4.3-0.4,7.9-0.6,11.6c-0.1,1.2-0.8,1.8-1.8,1.9c-2.2,0.1-4.4,0.2-6.7,0
		c-0.6,0-1.4-0.8-1.5-1.4c-0.3-1,0.2-2,1.5-2c1,0,2.1,0.1,3.1,0.1c1.3,0.1,2.2-0.4,2.1-1.9c0-0.1,0-0.3,0-0.4
		c0.2-3.3,0.2-3.3-2.9-3.2c-2.4,0.1-2.7-0.2-2.9-2.6c-0.1-1.5-0.3-2.9-0.6-4.4c-0.3-1.4,0-2.1,1.5-2.4c1.8-0.3,3.6-0.7,5.4-1.2
		c1.6-0.4,2.5,0.2,2.8,1.6C403.6,135.9,403.7,137.5,403.9,138.5L403.9,138.5z M400.4,139.5c0-0.2-0.4-3.4-0.4-3.4s-2.5,0.3-3.2,0.7
		c0.4,0.4,0.4,2.9,0.8,2.8C398.4,139.5,399.6,139.8,400.4,139.5L400.4,139.5z"/>
	<path class="st0" d="M362.4,138.1c-0.1-1.2-1-2.9,0.7-3.6c1.6-0.7,2.6,0.9,3.4,2c1.7,2.1,3.2,4.3,4.8,6.5c0.2,0.3,2.1,3.3,2.4,3.6
		c0.7,0.6,0.1-3,0.1-4.3c0-1.9-0.3-2.9-0.3-4.8c0-1.3-0.3-2.9,1.4-3.4c1-0.3,2,1.3,2,3.2c-0.1,4,0.3,10.8,0,14.8
		c0,0.6-2.1,1-2.5,0.6c-0.2-0.2-0.3-0.5-0.5-0.7c-1.9-1.9-4.3-6.5-6.2-8.4c-0.5-0.4-1.4-2-1.9-2.3c-0.1,0.7-0.1,2.6-0.1,3.3
		c0.1,2.3,0.2,4.6,0.4,6.9c0.1,1.3-0.4,2.1-1.7,2.1c-1.5,0-1.3-1.2-1.3-2.1c0-1.5,0.1-3,0.2-4.5C363.2,146.7,362.6,141,362.4,138.1
		L362.4,138.1z"/>
	<path class="st0" d="M360,138c0,2.2,0,8.4-1.4,11c-1.5,2.6-3,4-4.7,3.6c-1.1-0.3-2.2-1.8-2.6-3c-0.8-2.7-1.2-5.6-1.6-8.5
		c-0.2-1.5-0.4-3.1-0.4-4.7c0-1-0.1-2,1.4-2.1c1.4-0.1,1.8,0.7,2,1.9c0.4,3.5,0.9,6.9,1.3,10.4c0,0.4,0.4,0.7,0.6,1
		c0.2-0.3,0.5-0.6,0.6-0.9c1.2-2.8,2.6-5.5,1.4-8.7c-0.2-0.5-0.2-3.1,0.1-3.5c0.5-0.6,2.8-0.3,3.1,0.3
		C359.8,135.2,360,135.8,360,138z"/>
	<path class="st0" d="M341.5,141.1c0-3.7,0-3.8-3.7-3.8c-1.1,0-1.9-0.3-2.3-1.3c-0.6-1.2,0-2.5,1.3-2.4c2.5,0.1,5,0.4,7.5,0.9
		c0.4,0.1,1,1.1,1,1.7c0,1.7-0.3,3.4-0.5,5.1c-0.3,3-0.5,6.1-0.8,9.1c-0.2,2.5-1.4,3.3-3.8,2.7c-1.4-0.4-2.7-0.8-3.9-1.6
		c-0.7-0.4-1.2-1.3-1.4-2.1c-0.1-0.5,0.2-1.4,0.6-1.7s1.3-0.1,1.8,0.1c0.4,0.2,0.6,0.8,1,1.1c1.4,1,2.5,0.6,2.7-1.1
		c0.2-1.8,0.5-5.9,0.5-6.1C341.5,141.4,341.5,141.2,341.5,141.1L341.5,141.1z"/>
	<path class="st0" d="M382.8,172.2c-1.4,0.2-2.7,0.2-3.6-1c-0.9-1.1-0.5-2,0.9-2.2c3.2-0.4,6.4-0.8,9.6-0.9
		c5.6-0.2,11.2-0.1,16.8-0.1c0.3,0,0.7-0.1,0.9,0.1c0.4,0.3,0.3,1.6,0,1.6C405.4,169.9,389.1,171.4,382.8,172.2L382.8,172.2z"/>
	<path class="st0" d="M400.8,182c2.1-0.2,4.3-0.2,6.5,0c0.6,0,0.7,1.9,0.1,2c-5.7,0.7-11.4,1.4-17,1.9c-2.5,0.2-5,0.1-7.6,0.1
		c-1.1,0-2.2,0.1-3.3,0.2c-0.7,0-1.6,0.5-1.7-0.8c0-1.1,0.3-2,1.6-2h4.5C383.9,183.5,395.2,182.5,400.8,182z"/>
	<path class="st0" d="M385.3,178.6c-0.4,0-0.9,0.1-1.3,0.1c-1.2,0.1-1.7-0.6-1.8-1.6s0.3-1.7,1.5-1.8c2.1-0.2,4.2-0.4,6.2-0.5
		c4.5-0.3,9.1-0.7,13.6-0.9c1.1-0.1,2.8-0.4,2.8,1.3s-1.7,1-2.7,1.1c-4.1,0.5-8.1,1-12.2,1.5C389.4,178.1,387.3,178.4,385.3,178.6
		L385.3,178.6z"/>
</g>
<path class="st1" d="M376.3,281.2c0-2.8,0.1-5.2,0-7.6c-0.1-1.5,0.7-2.1,1.9-2.2c4-0.5,7.9-1,11.9-1.4c2.5-0.3,5-0.7,7.5-1
	c2.8-0.3,4,0.6,3.7,3.4c-0.3,3.8-1,7.7-1.5,11.5c-0.2,1.4-0.3,2.8-0.3,4.2c0,1.2-0.5,1.7-1.7,1.8c-4,0.3-8,0.7-12,0.8
	c-2.7,0-5.3-0.4-8-0.8c-0.4-0.1-0.9-0.9-1-1.3C376.6,286,376.4,283.3,376.3,281.2z"/>
<path class="st1" d="M334.7,412.6c-2.2,0-4.3,0-6.5,0c-2.1-0.1-3-0.7-3.1-2.8c-0.2-5.5-0.3-11-0.5-16.5c0-0.6,0-1.2,0-1.8
	c-0.1-4.6-0.6-4,4.2-5c3.8-0.7,7.7-1.3,11.5-1.8c0.8-0.1,1.7-0.1,2.5,0c0.4,0.1,0.8,0.6,0.9,0.9c0.3,1.2,0.5,2.5,0.5,3.7
	c-0.3,7-0.8,14-1.1,21c-0.1,1.8-0.9,2.5-2.7,2.3C338.4,412.4,336.6,412.6,334.7,412.6L334.7,412.6z"/>
</svg>
