<?xml version="1.0" encoding="utf-8"?>
<!-- Generator: Adobe Illustrator 27.0.0, SVG Export Plug-In . SVG Version: 6.00 Build 0)  -->
<svg version="1.1" id="Ebene_1" xmlns="http://www.w3.org/2000/svg" xmlns:xlink="http://www.w3.org/1999/xlink" x="0px" y="0px"
	 viewBox="0 0 841.9 595.3" style="enable-background:new 0 0 841.9 595.3;" xml:space="preserve">
<style type="text/css">
	.st0{fill-rule:evenodd;clip-rule:evenodd;fill:#3F4244;}
	.st1{fill:none;}
</style>
<path class="st0" d="M365.2,141.7c11.1-0.3,22.1-0.8,33.2-0.9c7.7-0.1,15.4,0.1,23.2,0.2c6.8,0.1,13.7,0.1,20.5,0.2
	c4.2,0.1,8.4,0.4,12.7,0.6c0.8,0,1.6,0,2.4-0.1c2.2-0.2,3.5,0.6,3.7,2.9c0.1,1.4-0.1,2.9-0.2,4.4c-0.4,7.3-0.8,14.6-1.2,21.9
	c-0.1,2.3,0.1,4.7,0.1,7c0,1.1,0.8,1.1,1.6,1.1c8.4-0.1,16.8-0.2,25.1-0.2c7.2,0,14.4,0.2,21.5,0.1c7.8-0.1,15.5-0.4,23.3-0.5
	c4.1-0.1,21.9-0.2,26.7-0.4c2-0.1,2.3,0,2.3,2.2c0.1,5,0.2,10.1,0.2,15.1c0,6.4-0.3,12.8,0.1,19.1c0.6,8.7-0.5,17.3-0.1,25.9
	c0,1.3,0.4,2.7,1.1,3.8c1,1.7,2.4,3.2,3.6,4.8c1.4,1.8,2.7,3.7,4.3,5.3c2.9,2.9,6,5.7,9.2,8.3c2,1.6,4.4,2.7,6.7,4
	c0.3,0.2,0.8,0.1,1.3,0.2c-0.1-0.4-0.2-0.7-0.3-1.1c-1.2-3.3-2.7-6.8-3.7-9.8c-0.9-3-0.9-2.7,1.8-3.7s11.7-3.4,21.8-5.4
	c4.1-0.8,8.1-1.9,12.2-2.7c6.8-1.3,13.7-2.5,20.6-3.7c4.1-0.7,8.1-1.5,12.2-2.3l4.5-0.9c1.6-0.3,2.8,0.2,3.5,1.7
	c2.6,5.8,5.3,11.6,7.7,17.5c2.6,6.2,4.9,12.5,7.4,18.7c0.9,2.2,1.9,4.3,2.8,6.5c0.7,1.7,0.2,2.4-1.7,2.7c-6.4,1.1-12.8,2.3-19.2,3.5
	c-0.4,0.1-0.7,0.5-1.1,0.7c0.4,0.1,0.7,0.2,1.1,0.2c3.5,0.1,7.1,0.2,10.6,0.3c4.1,0.1,8.2,0.3,12.2,0.5c2.9,0.1,5.9,0.2,8.8,0.4
	c1.5,0.1,2.3,1.1,2.2,2.7c-0.3,4.5-0.6,9-0.9,13.4c0,0.5-0.5,1.3-0.9,1.5c-1.3,0.5-2.7,0.8-4.1,0.9c-4.5,0.3-9,0.6-13.5,0.7
	c-2.9,0.1-5.8,0.1-8.6-0.1c-1.5-0.1-1.9,0.6-1.9,1.8c0,2.6-0.1,5.2-0.1,7.9c0.1,7.8,0.3,15.5,0.5,23.3c0,0.7,0.2,1.5,0.3,2.2
	c0.1,1,0.8,1.3,1.7,1.3c5.9,0,11.8-0.1,17.7,0c5.2,0.1,10.5,0.2,15.7,0.4c2.3,0.1,4.6,0.7,6.9,1c1.1,0.1,1.3,0.7,1.4,1.6
	c0.2,3.1,0.5,6.2,0.7,9.2v0.6c0.2,4.2,1.6,5.4,5.8,4.8c0.9-0.1,1.9-0.2,2.8-0.2c2.4-0.1,3.6,1,3.7,3.4c0.4,6.6,1,13.2,1.2,19.8
	c0.1,3.7-0.4,7.4-0.6,11.2c-0.1,2.2-0.1,4.4-0.2,6.6c-0.3,6.5-0.6,13-0.8,19.5c-0.1,4-0.1,8-0.1,12.1c0,1.1-0.2,1.7-1.3,1.8
	c-2.5,0.3-5,0.7-7.6,0.8c-4.6,0.2-9.3,0.3-13.9,0.4c-5.8,0.2-11.7,0.4-17.5,0.7c-3.9,0.2-7.9,0.3-11.8,0.5c-0.4,0-0.7,0.5-1.1,0.7
	c-0.9,0.4-1.8,1-2.7,1c-4.9,0.1-9.8,0.1-14.8,0.2c-3.5,0.1-7.1,0.2-10.6,0.3c-7,0.2-14.1,0.6-21.1,0.6c-7.9,0.1-15.8-0.2-23.8-0.2
	c-8.2,0-16.4,0-24.6,0c-4.8,0-9.7,0.3-14.5,0.3c-6.5-0.1-13-0.4-19.5-0.5c-7.3-0.2-14.6-0.5-21.9-0.5c-9.1,0.1-18.2,0.5-27.3,0.7
	c-5.2,0.1-10.5,0.2-15.7,0.3c-5.1,0-10.3-0.2-15.4,0c-6.4,0.2-12.9,0.8-19.3,1.1c-9.7,0.4-19.5,0.7-29.2,1
	c-4.8,0.1-9.7,0.1-14.5,0.2c-5.1,0-10.2-0.2-15.3,0c-9.2,0.4-18.4,0.3-27.5,1.7c-5.1,0.7-10.3,0.7-15.4,1c-2.9,0.2-5.9,0.4-8.8,0.7
	c-1.8,0.2-2.6-0.4-2.8-2.2c-0.7-5.1-0.7-5-5.7-5.3c-8.2-0.4-16.4-0.9-24.5-1.3c-1.4-0.1-2.8,0-4.2-0.1c-2-0.1-2.3-0.5-2.5-2.4
	c-0.1-1-0.3-2-0.4-3c-0.3-2.1,0.3-2.8,2.5-2.9c2.7-0.1,5.3-0.2,8-0.4c1.1-0.1,2.3-0.3,3.3-0.6c0.4-0.1,0.8-0.7,0.8-1.1
	c0-2.4-0.1-4.8-0.3-7.2c0-0.3-0.7-0.8-1.1-0.8c-1.9,0-3.8,0.2-5.6,0.1c-4.8-0.1-9.6-0.2-14.4-0.5c-2.5-0.2-4.6,0.2-6.7,1.4
	c-8.3,4.6-17.1,8.2-26.4,10.3c-6.2,1.4-22.1,3.2-23.7,3.2c-2.1,0.1-4.3,0.2-6.4,0.1c-2.2,0-1.6,0.1-1.4,2s0.5,2.4-0.9,2.7
	c-4.3,1-8.7,1.8-13,2.8c-1.5,0.3-2.1-0.4-2.5-1.7c-0.3-1-0.6-2.3-1.3-2.7c-0.6-0.3-1.8,0.4-2.8,0.7c-0.9,0.2-1.8,0.5-2.8,0.6
	c-0.4,0-1.1-0.3-1.3-0.7c-0.2-0.3,0-1,0.3-1.3c0.4-0.5,3.4-1.5,4.4-1.6c0.9-0.1,2,0.2,1.7-1.4c-0.4-1.8-0.8-2.1-2.4-1.7
	c-1,0.3-2.1,0.6-3.1,0.8s-1.7-0.3-1.9-1.3c-0.1-1,0.4-1.7,1.5-1.8s2.1-0.3,3.2-0.4c1.4-0.2,1.5-1,1.2-2.2c-0.8-2.9-0.1-3.7,3-3.6
	c2.3,0.1,9.4-0.1,10.5-0.5c1.6-0.5,2.5-0.1,2.9,1.4s0.7,3,1.2,4.4c0.2,0.5,1,0.9,1.5,1.2c2.3,1.4,21.5,0.7,28.4-1.1
	c7.4-1.9,14.8-3.7,21.6-7.3c1.2-0.7,2.5-1.2,3.8-1.8c0.4-0.2,0.6-0.6,0.9-1c-0.4-0.2-0.8-0.6-1.2-0.6c-1.2-0.2-2.4-0.2-3.6-0.4
	c-3.3-0.4-6.6-0.8-9.9-1.3c-1.8-0.3-2.2-1.1-2.1-2.8c0.1-4.2,0.2-8.4,0.2-12.7c0-7.4-0.1-14.7-0.3-22.1c-0.1-4.3-0.4-8.6-0.5-12.9
	c-0.1-3.6-0.1-7.2-0.3-10.9c-0.1-2.3-0.4-4.5-0.5-6.8c-0.1-1.9-0.2-3.7-0.1-5.6c0.1-3.9,0.3-7.8,0.5-11.6c0-1.1-0.1-2.3-0.1-3.4
	c0.1-2,0.7-2.7,2.7-2.7c2.6,0,5.2,0.2,7.8,0.3c2.1,0.1,4.3,0,6.4,0c1.1,0,1.5-0.3,1.5-1.5c-0.1-3.1,0-6.2,0-9.2
	c0-1.1,0.2-2.1,0.1-3.2c-0.1-3.9-0.2-7.8-0.3-11.7c-0.4-9.2-0.8-18.3-1.1-27.5c0-0.7-0.1-1.3-0.2-2c-0.3-2.3-0.8-2.7-3.1-2.8
	c-3.6,0-7.1,0.1-10.7,0.1c-2.4,0-2.3-0.1-2.1-2.5c0.2-2.7,0.1-5.5,0-8.2c-0.1-2-0.1-2,1.9-2.1c2.5-0.1,5.1-0.4,7.6-0.5
	c3.8-0.2,7.6-0.3,11.4-0.4c1.7,0,3.5-0.1,5.2,0c1.1,0.1,1.3-0.4,1.2-1.3c-0.1-1.1-0.3-2.1-0.2-3.2c0-2,0.3-4,0.3-5.9
	c0-1.5-0.3-2.9-0.6-4.4c-0.6-3-0.4-3.2,2.6-3.3c2.1,0,4.2-0.2,6.2-0.2c1.2,0,1.3-0.4,1.3-1.4c-0.3-6.1-0.6-12.2-0.7-18.3
	c-0.1-2.3,0.7-2.8,3-2.4c0.4,0.1,0.8,0.2,1.2,0.2c3.4,0.2,4-0.4,4.3-3.8c0-0.3,0-0.7,0-1c0.2-2.2,0.8-2.9,3-2.8c2,0,4,0.3,6,0.4
	c1.7,0.1,3.3,0.4,5,0.4c1.3,0,2.1,0.3,2.2,1.7c0,0.6,0.3,1.2,0.4,1.8c0.2,1.2,0.8,1.7,2.1,1.6c2-0.2,4-0.2,6-0.3
	c1.4-0.1,2.2,0.4,2.3,1.8c0.4,5.1,1,10.2,0.2,15.3c-0.1,0.9,0,2,0.3,2.9c0.1,0.4,1.1,0.9,1.6,0.8s1.1-0.8,1.2-1.3
	c0.3-0.9,0.3-2,0.4-3c0.2-2.5,1.6-3.6,4-2.9c3.1,0.8,6.3,0.2,9.4,0.1c6.2-0.1,12.3,0.1,18.5,0.1s12.5,0.1,18.7,0.1
	c3.3,0,6.7-0.3,10-0.3c1.5,0,2.1-0.5,2-2c-0.1-1.9,0-3.8-0.1-5.6c-0.1-1.4,0.4-1.9,1.8-2c1.7-0.1,3.5-0.3,5.1-0.7
	c0.5-0.1,1.3-1,1.3-1.5c0.1-2.2,0-4.4-0.1-6.6c-0.1-1.4-0.9-1.9-2.2-2.1c-5.4-0.9-10.8-1-16.2-1c-3.2,0-6.4-0.1-9.6,0
	c-4.4,0.1-8.7,0.3-13.1,0.3c-2.4,0-4.8-0.1-7.2-0.1c-1.4,0-1.6-1-1.6-2.1c0.1-3.3,0.1-6.6,0.3-9.9c0.2-5.8,0.6-11.7,0.7-17.5
	c0.1-5-0.3-10.1-0.4-15.1c-0.1-4.6-0.3-9.3,0-13.9s2-5.7,6.6-5.6C355.2,141.5,365.2,141.6,365.2,141.7L365.2,141.7z M321.6,313.2
	c-2.3,0.2-4.7,0.4-7,0.5c-1.2,0.1-1.9,0.5-1.8,1.9v2c0.4,5.2,0.9,10.4,1.1,15.6c0.3,5.4,0.5,10.9,0.6,16.3c0.1,3.9-0.2,7.8,0,11.7
	c0.2,5.4,0.8,10.7,1.2,16c0.3,4.5,0.4,9,0.7,13.4c0.3,4.8,0.6,9.6,0.9,14.5c0.3,4.5,0.4,9,0.8,13.5c0.4,4.9,1.1,9.7,1.6,14.6
	c0.3,3.1,0.3,6.2,0.7,9.2c0.2,1.9,1.2,2.7,3.1,2.6c2.7-0.1,5.5-0.2,8.2-0.3c6.2-0.4,12.3-0.9,18.5-1.3c6.7-0.4,13.4-0.7,20-0.9
	c7.9-0.2,15.8-0.3,23.7-0.4c6.2-0.1,12.3,0.2,18.5,0c8-0.3,16-0.9,24-1.4c3.6-0.2,7.2-0.4,10.9-0.5c8-0.3,16.1-0.6,24.1-0.7
	c5.5-0.1,11,0.1,16.5,0c5.3-0.1,10.6-0.6,15.9-0.6c7,0,14,0.2,20.9,0.3c3.1,0.1,6.3,0.1,9.4,0.2s6.2,0.6,9.2,0.6
	c6.8,0.1,13.6,0,20.3-0.1c5.4,0,10.8-0.1,16.3-0.1s11-0.1,16.5,0c4.2,0,8.3,0.1,12.4,0.1c5,0,10-0.1,15.1-0.2l11.7-0.3
	c4-0.1,7.9-0.2,11.9-0.4c3.5-0.1,7.1-0.4,10.6-0.4c1.9,0,2-1,2-2.4c0-2.5,0.1-5.1,0-7.6c-0.2-5.2-0.5-10.4-0.6-15.7
	c-0.1-6.4-0.1-12.7-0.2-19.1c0-1.8,0.2-3.6,0.1-5.4c-0.3-7-0.6-13.9-0.9-20.9c-0.3-7.6-0.6-15.2-0.9-22.7c-0.1-2.3-0.2-4.7-0.2-7
	c0-3.1,0.1-6.2,0.1-9.2c0-5.5-0.1-11.1,0-16.6c0-2.1-0.4-2.6-2.5-2.7c-2.4,0-4.7-0.1-7.1-0.1c-5.6-0.1-11.1-0.2-16.7-0.1
	c-4.3,0-8.6,0.3-12.9,0.2c-8.1-0.2-16.2-0.8-24.3-0.9c-8.7-0.1-17.4,0.2-26.2,0.3c-11.7,0.2-23.5,0.3-35.2,0.4c-7,0.1-14,0-21,0.1
	c-6.8,0.1-13.6,0.5-20.5,0.7c-2.5,0.1-4.9,0-7.4,0.1c-6.6,0.2-13.1,0.6-19.7,0.8c-7.6,0.2-15.3,0.2-22.9,0.3c-2.6,0-5.2-0.1-7.8,0.1
	c-5.1,0.2-10.2,0.6-15.3,0.9c-8.4,0.4-16.9,0.8-25.3,1c-7.6,0.2-15.1,0.5-22.7,0.5s-15.3-0.4-22.9-0.5c-4.2-0.1-8.4-0.2-12.6-0.1
	C330.2,312.7,321.6,313.2,321.6,313.2z M557.2,182.8c0-1.6-0.8-2.3-2.4-2.3c-4.4,0.1-8.9,0-13.3,0.1c-6.8,0.2-13.5,0.6-20.3,0.7
	c-7,0.1-14.1,0.1-21.1,0.1c-3.3,0-6.7,0.1-10.1,0c-3.2,0-6.4-0.2-9.6-0.2c-2.8,0-5.6,0.3-8.4,0.2c-10.3,0-20.5-0.1-30.8-0.1
	c-4.7,0-9.4,0.2-14.1,0.4c-3,0.1-6,0.4-9,0.9c-2.2,0.4-2.6,1.3-2.5,3.4c0.2,3.1,0.4,6.3,0.4,9.4c0,4.2,0,8.3-0.1,12.5
	c0,2.7-0.1,5.4-0.3,8c-0.4,4.3-1.1,8.7-1.3,13c-0.3,6.9-0.4,13.8-0.5,20.7c-0.1,3.9-0.3,7.8-0.2,11.7c0.2,7.3,0.6,14.6,0.9,21.9
	c0.1,1.8,0,3.6-0.2,5.4c-0.3,2.5-0.3,2.5,2.1,2.4c6.4-0.2,12.8-0.3,19.1-0.5c7.9-0.2,15.8-0.4,23.7-0.8c7.2-0.4,14.3-1.3,21.4-1.5
	c8-0.2,16.1,0.2,24.1,0.2c4.5,0,9.1-0.2,13.6-0.4c2.7-0.1,5.3-0.8,8-0.8c9.7,0.2,19.5,0.5,29.2,0.8c2.5,0.1,2.9-0.2,2.7-2.8
	c-0.2-3.8-0.5-7.6-0.6-11.4c-0.2-8.8-0.4-17.6-0.5-26.4c-0.1-4.3-0.2-8.7-0.2-13c0-5.7,0.2-11.4,0.2-17.1
	C557.5,209.7,557.2,186.5,557.2,182.8z M291.6,304.8c0.1,0.9,0.1,1.7,0.1,2.6c0.1,4.1-0.2,3.6,3.9,3.9h0.2c7-0.1,13.9-0.2,20.9-0.4
	c6.4-0.2,12.9-0.8,19.3-0.8c7.6-0.1,15.2,0.4,22.7,0.4c9.7,0.1,19.3,0,29-0.1c3.6,0,7.2-0.6,10.8-0.7c5.2-0.1,10.5,0,15.7-0.2
	c5.5-0.2,11-0.9,16.5-1c8.6-0.2,17.3,0,26-0.2c6.2-0.1,12.3-0.5,18.5-0.7c6.7-0.2,13.4-0.2,20.1-0.4c6.6-0.2,13.3-0.4,19.9-0.6
	c1.7-0.1,3.5-0.2,5.2-0.2c5.9,0,11.8,0.1,17.7,0c9-0.1,18-0.3,27-0.4c6.2-0.1,12.5,0.1,18.7-0.2c9.7-0.4,19.4,0,29.2,0.5
	c5.4,0.2,10.9,0.1,16.3,0.1c4.2,0,8.5,0,12.7,0.1c5.9,0.1,11.9,0.2,17.8,0.2c5.1,0,10.2-0.1,15.3-0.3c3.4-0.1,6.8-0.6,10.2-0.9
	c1-0.1,1.3-0.6,1.4-1.6c0.2-2.5,0.5-5.1,0.7-7.6c0.3-2.9-0.3-3.6-3.2-3.8c-0.3,0-0.5,0-0.8,0c-4.8-0.2-9.7-0.4-14.5-0.5
	c-6-0.2-12.1-0.4-18.1-0.4c-3,0-6,0.2-9,0.4c-3.1,0.2-6.2,0.2-9.2,0.8c-4.9,0.9-9.8,2-14.7,3.2c-4.3,1-8.7,1.4-12.7,3.6
	c-1.8,0.9-3,0.3-3.9-1.6c-0.6-1.3-1.9-4.8-1.9-4.8s-17.5-0.9-24.2-1.3c-4.9-0.3-9.8-0.5-14.7-0.7c-9.4-0.5-18.7-1.1-28.1-1.4
	c-2.8-0.1-5.6,0.3-8.4,0.4c-6,0.3-12,0.8-18.1,0.9c-6.4,0.1-12.9-0.3-19.3-0.4c-4.5-0.1-9-0.3-13.5,0.2c-10.2,1.1-20.3,2.4-30.7,2
	c-6.5-0.2-13,0.3-19.5,0.5c-7.6,0.2-15.1,0.4-22.7,0.6c-2.2,0.1-4.4,0.2-6.6,0.3c-4,0.3-8,0.7-12,1c-6.6,0.4-13.3,0.6-19.9,1
	c-4.3,0.2-8.6,0.6-12.8,0.7c-4.4,0.2-8.7-0.3-13.1,0.3c-4.6,0.6-9.2,0.5-13.9,0.6c-6,0.1-12.1-0.1-18.1,0c-3.1,0-6.2,0.2-9.2,0.5
	c-2.3,0.2-2.8,0.8-2.8,3.2C291.6,302.6,291.6,303.7,291.6,304.8L291.6,304.8z M259.4,378.6c0.5,7.8,1.1,15.5,1.6,23.3
	c0.1,2.1,1,3.2,2.9,3.8c1.3,0.3,2.6,0.6,3.9,0.7c6.8,0.4,13.5,0.6,20.3,0.9c4.3,0.2,8.6,0.6,12.8,0.8c3.8,0.2,7.6,0.3,11.4,0.3
	c1.9,0,2.3-0.5,2.2-2.3c-0.4-5.9-0.9-11.9-1.3-17.8c-0.6-9.6-1.3-19.1-1.9-28.7c-0.4-6.7-0.8-13.5-1.2-20.2
	c-0.1-1.1-0.4-1.6-1.5-1.6c-2.1-0.1-4.1-0.4-6.2-0.4c-5.1-0.1-10.2,0-15.2,0c-2.4,0-20.8,1-27.6,1.7c-1.2,0.1-1.5,0.7-1.5,1.7
	c0,3.3-0.2,6.6,0,9.9C258.4,357.7,259.3,376.4,259.4,378.6L259.4,378.6z M662.8,427.4v3c0,1.8,0,3.6,0.1,5.4c0,0.4,0.5,1.1,0.8,1.1
	c1.6,0.1,3.2,0.1,4.9,0.1c3.3-0.1,6.7-0.2,10.1-0.3c3.5-0.1,7.1-0.1,10.6-0.2c7-0.3,14-0.7,21-1c2.6-0.1,3-0.4,3.1-3
	c0-2.3-0.2-4.6-0.1-6.8c0.3-8.8,0.7-17.6,1.1-26.4c0.1-1.8,0.1-3.6,0.1-5.4c0.1-4.3,0.4-8.6,0.4-12.8c0-3-0.4-6-0.6-9
	c-0.1-1.5-0.2-2.9-0.3-4.4c-0.1-0.8-0.5-1.1-1.4-1.4c-3.5-1.1-7-0.7-10.6-0.7c-4.2,0-8.3,0.3-12.5,0.6c-8.8,0.5-17.5,1-26.3,1.4
	c-1.7,0.1-1.8,0.7-1.8,2.1c0.3,5.4,0.6,10.7,0.7,16.1c0.1,3.7-0.3,7.5-0.3,11.2C662.2,407,662.6,417.2,662.8,427.4L662.8,427.4z
	 M391.2,292.4c2.1-0.1,2.1-0.1,1.9-2.1c0-0.5,0.5-8.1,2-15.6c1.5-7.1,4.1-14.1,5.1-17.1c0.7-2.2,1.1-4.2,1-6.5c-0.1-2.7-0.1-5.4,0-8
	c0.2-5-0.2-5.2-5.3-4.7c-5.4,0.5-10.8,0.6-16.2,0.7c-3.6,0.1-7.2-0.2-10.8-0.1c-3.7,0.1-7.4,0.4-11,0.5c-3.3,0.1-6.6,0-9.9,0.1
	c-2.8,0.1-5.6,0.5-8.4,0.6c-2.2,0-2.6,0.3-2.5,2.5c0.1,3.5,0.3,7,0.3,10.5c0.1,2.6-0.1,5.2,0.1,7.8c0.2,3.8,0.3,3.8,4.1,4.5
	c1.5,0.3,2.2,0.8,2.2,2.5c0,5,0.1,9.9,0.3,14.9c0.1,3.5,0.3,7,0.3,10.4c0,1.3,0.7,1.7,1.9,1.7c3-0.2,6-0.3,9-0.4
	c2.5-0.1,5.1-0.2,7.6-0.4C367.9,293.6,386.7,292.6,391.2,292.4z M441.6,178.5c0.9,0.1,1.8,0,2.6,0.1c1.3,0.2,1.7-0.3,1.6-1.5
	c-0.2-2-0.3-4-0.4-6c-0.2-4-0.7-8-0.6-12c0.1-3.5-1.5-5.6-5-5.8c-0.3,0-0.7,0-1,0c-4.5-0.3-8.9-0.5-13.4-0.8
	c-2.2-0.1-4.4-0.4-6.6-0.5c-3.9-0.2-7.8-0.4-11.6-0.6c-3.7-0.2-7.4-0.5-11-0.5c-7-0.1-14-0.1-21-0.1c-5.8,0-11.6,0.2-17.4,0.4
	c-1.8,0.1-2.1,0.6-2,2.4c0.4,4.4,0.7,8.8,1.1,13.2c0.2,3,0.4,6,0.7,9c0.4,4.5,0.9,9,1.3,13.6c0.2,1.9,0.8,2.6,2.8,2.5
	c2.2-0.1,4.4-0.3,6.6-0.3c5.2,0,10.5,0.3,15.7,0.2s10.4-0.4,15.7-0.6c2.5-0.1,4.7-0.5,6.4-2.6c2-2.6,4.1-5.1,6.3-7.5
	c0.6-0.7,1.5-1.3,2.4-1.4c1.4-0.3,2.9-0.1,4.4-0.2C426.5,179.1,434.1,178.8,441.6,178.5L441.6,178.5z M348.8,144.6
	c-2.1,0-2.5,0.5-2.5,2.5c0,1.9,0.2,3.8,0.2,5.6c0,2.7-0.2,5.4-0.1,8c0.1,5,0.6,10,0.6,15c0,6.2-0.4,12.5-0.7,18.7
	c-0.1,1.7-0.5,3.5-0.5,5.2c0,1.9,0.7,2.7,2.6,2.9c2.5,0.2,5.1,0.5,7.6,0.4c4.2-0.1,8.3-0.5,12.5-0.6c2.9-0.1,5.9,0.2,8.8,0.2
	c2.8,0,5.6-0.2,8.4,0c5.6,0.4,11.1,0.9,16.7,1.5c1.4,0.1,2-0.3,2-1.8c-0.1-1.7,0.1-3.5,0-5.2c-0.1-2.4-0.6-2.9-3.2-2.9
	c-3.3,0-6.6-0.1-9.8-0.1c-6.3,0-12.6,0-18.9-0.1c-2.5-0.1-6.9,0.1-11.2,0.2s-4.9-0.6-5-1.8c-0.5-6.2-1-12.4-1.5-18.6
	c-0.2-2.4-0.6-4.8-0.8-7.2c-0.5-4.9-0.9-9.9-1.6-14.8c-0.4-2.9,0.1-3.5,2.9-3.5c2.9,0,26.9-0.2,31-0.1c6.6,0.2,13.3,0.2,19.9,0.4
	c4.4,0.1,8.8,0,13.2,0.5c7.5,0.8,15,1.5,22.6,1.4c1.2,0,2.5,0.4,3.7,0.7c0.3,0.1,0.6,0.6,0.7,0.9c0.5,3.9,1.1,7.8,1.4,11.8
	c0.3,4.2,0.4,8.4,0.6,12.7c0.1,2,0.6,2.4,2.5,2.4h3c2.4,0.1,2.5,0,2.6-2.4c0.2-4.8,0.3-9.7,0.5-14.5c0-1.3,0.1-2.7,0.2-4
	c0.1-3.3,0.4-6.6,0.4-9.8c0-2.4-0.5-2.9-3-3c-2.7-0.2-5.4-0.2-8-0.3c-5.4-0.3-10.8-0.7-16.3-0.8c-8-0.2-16.1-0.3-24.1-0.3
	c-5.9,0-11.8,0.2-17.7,0.3C380.4,144.3,353.9,144.6,348.8,144.6L348.8,144.6z M249.7,412.5c0,3.1,0.2,3.5,3.3,3.9
	c3.5,0.4,7.1,0.4,10.6,0.7c3.7,0.3,7.4,0.7,11.2,1s7.6,0.6,11.4,0.7c3.5,0,7-0.6,10.4-0.5c4.8,0.1,9.6,0.6,14.5,0.8
	c1.4,0.1,2.9,0.2,4.1-0.3c0.4-0.1,0.1-2.1,0.1-3.2c-0.1-0.9-0.2-1.7-0.5-2.5c-0.1-0.3-0.4-0.8-0.7-0.9c-1.6-0.4-3.2-1-4.9-1.1
	c-5.7-0.5-11.5-0.9-17.3-1.2c-5.4-0.3-10.7-0.7-16.1-0.9c-4.8-0.2-9.5-0.3-14.3-0.5c-2.2-0.1-3.3-1-3.4-3.2
	c-0.2-2.6-0.1-5.2-0.2-7.8c-0.1-4.3-0.2-8.6-0.4-12.8c-0.2-4-0.7-7.9-0.9-11.8c-0.2-5-0.3-9.9-0.4-14.9c-0.1-3.6-0.1-7.2-0.2-10.8
	c-0.1-3-0.3-6-0.5-9c-0.1-1.4,0.7-2.2,2.2-2.1c1.7,0.2,38.1-0.6,41.7-0.6c3,0,6-0.3,9-0.4c1.2-0.1,2.1-0.5,1.9-2
	c-0.1-0.4,0.2-0.9,0.2-1.4c-0.2-2.4-0.7-4.3-3.7-4c-2.7,0.2-14.9,0.6-17.4,0.7c-6.8,0.3-13.7,0.4-20.5,0.6c-1.1,0-2.2,0-3.4,0
	c-2.5,0.1-4.9,0.4-7.4,0.5c-2.5,0.2-5,0.3-7.4,0.4c-1.1,0-1.7,0.4-1.7,1.7c0,1.7-0.2,3.3-0.2,5c-0.1,3.1-0.2,6.2-0.2,9.2
	c0,2.5,0.9,27.8,1,37.8C249.6,390.4,249.6,409.7,249.7,412.5L249.7,412.5z M266.9,314c0.2,3.1,0.6,6.9,0.8,10.7
	c0.1,1.8,1.1,2.1,2.5,2c1.9-0.1,3.7-0.3,5.6-0.3c3.7-0.1,23.4-1.5,29.7-1c0.9,0.1,1.9-0.2,2.8-0.4c1.3-0.3,1.5-1.4,1.4-2.5
	s0-2.4-1.6-2.6c-1.7-0.2-3.5-0.3-5.2-0.4c-7.6-0.2-15.3-0.3-22.9-0.5c-0.3,0-0.7-0.1-1-0.2c-2.3-0.5-3.2-1.6-3.1-3.9
	c0.1-1.7,0.2-3.5,0.1-5.2c-0.3-7-0.8-14.1-1-21.1c-0.1-2.5,0.2-5,0.5-7.4c0.3-1.9,4-1.2,4.5-1.2c4.8-0.1,9.6-0.3,14.4-0.5
	c1.8-0.1,3.6-0.2,5.4-0.2c2.4-0.1,4.8-0.2,7.2-0.3c4.1-0.2,8.3-0.7,12.4-0.8c2.4,0,7.3-0.3,10.8-0.2c2.5,0.1,4.4-0.8,4.2,1.3
	c-0.6,4.7-0.1,9.4,1.2,13.9c0.6,2.1,1.1,2.3,3.8,2c1.9-0.2,2.1-0.4,2-2.7c0-3.6-0.1-7.2-0.1-10.9c-0.1-3.6-0.1-7.2-0.3-10.9
	c0-0.7-0.5-1.8-1.1-2.1c-0.9-0.5-2-0.7-3.1-0.7c-4.5,0-9,0.4-13.5,0c-4.4-0.4-8.7,0.2-13,0.5c-5.2,0.4-10.4,0.8-15.6,1.1
	c-1,0.1-2,0-3-0.1c-3.7,0-7.4-0.2-11-0.1c-4.3,0.1-8.6,0.4-12.9,0.5c-1.7,0.1-2.4,0.7-2.3,2.5c0.3,7.2,0.8,14.3,1,21.5
	C267,300.3,266.9,306.8,266.9,314L266.9,314z M654.6,240c-0.4,0.1-0.7,0.2-1.1,0.2c-4.2,0.7-8.3,1.3-12.5,2c-6.3,1-12.7,1.9-19,3.2
	c-9.7,2-19.4,4.3-29.1,6.5c-2.2,0.5-4.3,1.4-6.5,2.2c-0.8,0.3-1.2,0.8-0.7,1.7c0.3,0.5,0.4,1,0.7,1.5c1.5,3.4,3,6.7,4.4,10.1
	c0.4,1,0.8,1.8,1.9,2.2s1.8,1.2,1.3,2.3c-0.8,1.4-0.2,2.5,0.4,3.7c1.5,2.9,2.9,5.9,4.2,8.9c1.3,2.9,2.6,5.8,3.9,8.6
	c1.3,2.6,2.5,3.2,5.3,2.6c1.7-0.4,3.4-0.7,5.1-1.1l18-3.6c3.3-0.6,6.6-1.2,9.9-1.9c4.8-1.1,9.6-2.4,14.4-3.5
	c5.5-1.2,11.1-2.3,16.7-3.5c2-0.4,2-0.5,1.2-2.5c-3.5-8.7-6.9-17.5-10.3-26.2c-1.3-3.3-2.4-6.7-3.8-9.9
	C658.1,241.6,656.5,240.4,654.6,240L654.6,240z M301.3,281.8c-3.7,0.2-7.5,0.4-11.2,0.6c-2.7,0.1-5.5,0.2-8.2,0.3
	c-3.5,0.2-3.9,0.7-4.3,4.2c-0.6,6.8,0.8,13.5,1.1,20.3c0.1,2.7,0.6,5.3,0.8,8c0.1,1.2,0.8,1,1.5,1.1c2.5,0.2,5.1,0.3,7.6,0.5
	c2.2,0.2,4.4,0.5,6.6,0.6c4,0.1,8,0,12.1,0.1c1.2,0,2,0.1,2-1.4c0.1-1.8-0.2-2.3-1.8-2.4c-2.2,0-4.4,0.1-6.6,0.2s-4.4,0.3-6.6,0.1
	c-3.6-0.3-4.8-1.8-5-5.4c-0.1-3.1-0.2-6.2-0.5-9.2c-0.2-2.5,0.5-3.5,3-3.5c1.3,0,2.7,0.2,4,0.1c4.9-0.2,9.8-0.6,14.6-0.7
	c6.1-0.1,12.2-0.1,18.3,0c3.6,0.1,3.9,0.7,3.7-4c-0.2-2.9-0.6-5.9-0.7-8.8c-0.1-2.2,0.1-2.3-2.1-2.2c-5.2,0.2-10.5,0.4-15.7,0.7
	L301.3,281.8z M595.9,289.8c1.3,0,1.6-0.3,1-1.5c-1.2-2.7-2.4-5.5-3.7-8.2c-1-2.1-1.9-4.1-3-6.1c-0.5-0.9-1.2-1.8-2.1-2.3
	c-2.4-1.5-4.9-2.7-7.3-4.1c-3.6-2.1-7.3-3.9-9.8-7.4c0-0.1-0.1-0.1-0.1-0.2c-3-3.3-6-6.6-9.1-9.9c-0.3-0.4-0.7-0.7-1.1-1
	c-0.1,0.5-0.4,1-0.4,1.5c0,6.3,0,12.6,0.2,18.9c0.1,4.9,0.6,9.9,0.9,14.8c0.1,1.1,0.2,2.3,0.3,3.4s0.8,1.5,1.8,1.5
	C570.4,289.4,592,289.7,595.9,289.8L595.9,289.8z M327.4,230.3c-1.3,0.1-2.2,0.5-2.2,2.2c0.1,2.9-0.2,5.8,0,8.7
	c0.3,4.8,0.9,20,1.1,22.2c0.1,1.6,1.1,2,2.5,1.9c1.3,0,2.7-0.1,4-0.2c0.9,0,1.6-0.3,1.6-1.3c0.1-3.4,0.4-6.7,0.4-10
	c-0.1-4.8-0.5-9.6-0.7-14.5c-0.1-1.9,0.7-2.6,2.7-2.4h1.2c5.7-0.2,11.4-0.5,17-0.5c8.4-0.1,16.9,0,25.3-0.1c5-0.1,10-0.4,15-0.6
	c1.8-0.1,3.6-0.4,5.4-0.6c1-0.1,1.4-0.8,1.4-1.8c0.1-3.8,0.2-3.8-3.7-3.8c-0.2,0-0.4,0-0.6,0c-5.3,0.1-10.6,0.1-15.9,0.2
	c-2.7,0-5.5,0.1-8.2,0.2c-1.7,0.1-3.3,0.3-5,0.3c-6.6,0-36.9,0-36.9,0.2L327.4,230.3z M407.3,210.6c-0.7,7.7-1.7,15.3-2.4,23
	c-0.4,4.6-0.6,9.2-0.8,13.9c0,0.5,0.2,1,0.3,1.5c0.4-0.4,0.8-0.9,1.1-1.3c0.6-0.9,0.8-1.5,1.9-2.8c1-1.4,2.4-0.4,1.9,1.3
	c-0.6,1.7-1.7,4-2.9,5.7c-2.5,3.4-2.8,7.4-2.6,11.1c0.2,4.4,0,8.7,0.1,13c0,3.6,0.2,7.1,0.3,10.7c0,1.2,0,2.4-0.1,3.5
	c-0.1,1,0.1,1.6,1.2,1.6c1.7-0.1,3.5-0.1,5.2-0.3c0.4,0,1-0.5,1.1-0.9c0.4-2.6,0.9-5.3,1-8c0.1-2.9-0.4-5.8-0.5-8.6
	c-0.2-6.4-0.4-12.7-0.4-19.1c0-8.6,0.2-17.2,0.4-25.8c0.1-6.8,1.5-13.6,1.2-20.5c-0.3-7.4-0.4-14.8-0.5-22.3c0-0.3-0.1-0.5-0.1-0.8
	c-0.2,0.1-0.5,0.1-0.7,0.2c-2.3,2.3-4.5,4.7-4.5,8.2L407.3,210.6z M310.7,235.3c0,0,0.9,0,1.4-0.1c1.2-0.2,2.8,0.1,3.4-0.6
	c0.6-0.6,0.3-2.2,0.5-3.4c0.4-4.1,0.6-8.3,0.1-12.4c-0.3-2.3-1.2-2.9-3.4-2.4c-1.9,0.4-3.8,0.6-5.7,0.8s-3.9,0.2-5.8,0.3
	c-4.5,0.2-9.1,0.4-13.6,0.5c-1.6,0-2.1,0.3-2.1,1.9c0,2.4,0.2,4.8,0.3,7.2c0.2,2.5,0.6,4.9,0.6,7.4c0,2.3,0.3,2.7,2.6,2.4
	C291.3,236.5,305.7,235.5,310.7,235.3L310.7,235.3z M318.6,254.3c-0.2-2.4-0.3-4.2-0.4-6.1c-0.2-2-0.5-2.3-2.5-2.3
	c-1.9,0-3.9,0.2-5.8,0.2c-5-0.2-9.9,1.3-14.9,1.2c-5.7-0.2-11.5,0.7-17.2,1.2c-1.8,0.2-2.2,1.1-1.6,2.8c0.3,0.8,0.6,1.8,0.5,2.7
	c-0.3,1.3,0.2,1.4,1.2,1.4c0.4,0,0.8,0.1,1.2,0.1c5.5,0.6,11-0.5,16.4,0.8h0.6c7.2,0,14.5,0,21.7-0.1c0.3,0,0.9-0.4,1-0.8
	C318.7,254.9,318.6,254.3,318.6,254.3L318.6,254.3z M257.4,266.5c2.7,0.2,5.4,0.5,8,0.4c9-0.2,18.1-0.5,27.1-0.9
	c3-0.1,3.3-0.5,3.2-3.6c0-0.3,0-0.7-0.1-1c-0.3-2.6-1-3.2-3.6-3.3c-6.9-0.1-13.8-0.4-20.7-0.3c-5.7,0.1-11.4,0.6-17,0.9
	c-1.4,0.1-3.4-0.1-3.9,0.7c-0.7,1-0.3,2.8-0.2,4.3c0,1.8,0.7,2.6,2.5,2.7C254.2,266.6,255.9,266.5,257.4,266.5L257.4,266.5z
	 M322,241.9c0-0.6,0.1-1.2,0.1-1.8c0.1-1.5-0.5-2.2-1.9-2.2c-3.5,0.1-7.1,0.2-10.6,0.3c-1.9,0.1-3.7,0.3-5.6,0.3
	c-2.4,0.1-19.5,1.6-25.8,1.5c-2,0-2.4,0.7-1.9,2.6c0.2,0.5,0.4,1,0.4,1.6c0,1.4,0.7,1.9,2.1,1.8c0.8-0.1,1.6,0,2.4-0.1
	c2.9-0.2,5.7-0.5,8.6-0.7c6.6-0.4,13.2-0.8,19.9-1.1c2.9-0.1,5.7-0.1,8.6-0.2c1.5-0.1,2.1,0.7,2.2,2c0.2,2.3,0.5,4.5,0.8,6.8
	c0.1,0.9,0.5,1.9,0.7,2.8c0.2-0.9,0.7-1.9,0.6-2.8C322.5,249,322,241.9,322,241.9L322,241.9z M298.2,429.6c0,0.5,0.1,0.9,0.1,1.4
	c0.1,1.6-0.4,2-2,2c-3.7,0.2-7.5,0.4-11.2,0.7c-0.4,0-1.2,0.6-1.2,1c0,0.6,0.4,1.3,0.8,1.6s1.1,0.4,1.7,0.4
	c6.8,0.4,13.5,0.9,20.3,1.3c2.9,0.2,5.9,0.3,8.8,0.4c1,0,2-0.1,1.8-1.5c-0.3-2.6-0.4-3.5-2-3.5s-3.2-0.1-4.8-0.3
	c-1.2-0.1-1.9-0.7-2-2c-0.2-2.8-0.5-5.6-0.7-8.4c-0.1-1-0.5-1.5-1.5-1.5c-2.1-0.2-4.3-0.4-6.4-0.4c-1.7,0-2,0.5-2,2.2
	C298,425.2,298.1,429.6,298.2,429.6L298.2,429.6z M696.5,363.3c0.7,0,1.2,0.1,1.6,0c4.9-0.8,4.3,0.9,4-4.3c0-0.4,0-0.8,0-1.2
	c0.1-1.1-0.4-1.4-1.5-1.3c-1.4,0.2-2.8,0.3-4.2,0.3c-7.6,0.1-15.3-0.2-22.9,0.8c-3.4,0.4-6.8,0.6-10.2,0.9c-1.7,0.2-2,0.6-1.9,2.3
	c0,0.7-0.1,1.3,0,2c0.1,1.2,0.4,2,1.9,1.9c3.1-0.2,6.3-0.2,9.4-0.3C680.8,364.1,688.7,363.7,696.5,363.3L696.5,363.3z M691.4,354.8
	c2.9-0.3,5.9-0.5,8.8-0.8c1.4-0.2,1.9-1.1,1.8-2.6c-0.1-1.3-0.4-2.3-1.6-2.5c-1.5-0.3-12.2-0.3-16.3-0.6c-4.4-0.3-8.8,0-13.3,0
	c-2.8,0-5.6,0-8.4,0c-1.2,0-1.6,0.7-1.5,1.8s0.1,2.3,0.2,3.4c0.2,3.1,0.3,3.1,3.2,2.4c2.2-0.5,4.5-0.9,6.8-1
	C677.8,354.7,691.4,354.6,691.4,354.8L691.4,354.8z M404.3,213.1c0-2,0-3.3,0-4.7c0-1.1-0.5-1.6-1.6-1.6c-1.5,0-3,0-4.4-0.1
	c-2.6-0.1-2.6-0.1-2.5,2.4c0,0.6,0.1,1.2,0.1,1.8c0.1,1.8,0.2,3.6,0.3,5.4c0,2.4-0.4,2.7-2.7,2.6c-0.9,0-1.7-0.1-2.6,0
	c-2.4,0.2-3.3,1.2-3,3.7c0.3,2.9,1.4,3.9,3.8,3.7c3.1-0.2,6.3-0.4,9.4-0.5c1.5,0,2.2-0.6,2.3-2.1C403.6,220.1,404,216.3,404.3,213.1
	L404.3,213.1z M301.9,258.5c-2.8,0.1-2.9,0.2-3.2,3c-0.4,4.8,0.5,5,4.7,4.7c5.1-0.4,10.1-1,15.2-1.3c3.9-0.2,4.2-0.4,3.9-4.3
	c0-0.4-0.1-0.8-0.1-1.2c0-1-0.5-1.4-1.6-1.3C317.8,258.2,305.2,258.4,301.9,258.5L301.9,258.5z M196.1,427.7
	c-2.9-0.3-3.6,0.6-2.9,3.4c0.2,0.7,0.2,1.5,0.4,2.2c0.5,1.8,0.9,3.6,1.5,5.4c0.3,0.6,1.3,1.4,1.9,1.4c2.8-0.3,5.6-0.8,8.3-1.3
	c0.9-0.2,1.4-0.8,1.1-1.8c-0.7-2.8-1.4-5.6-2.2-8.3c-0.1-0.4-0.7-0.8-1-0.9C200.8,427.7,198.4,427.7,196.1,427.7L196.1,427.7z
	 M401.1,267.1c0-0.3-0.3-0.5-0.4-0.8c-0.2,0.2-0.4,0.4-0.4,0.6c-1.1,4.5-2.5,8.9-3.3,13.4c-0.6,3.1-0.4,6.4-0.7,9.6
	c-0.2,2-0.2,2,1.9,2c0.5,0,1,0.1,1.4-0.1s1-0.6,1-1c0.2-2.2,0.3-4.4,0.4-6.6c0-0.1,0-0.2,0-0.4C401,282.3,401.2,269.7,401.1,267.1z
	 M316.6,428.8c-0.2-1.2-0.3-2.5-0.5-3.7c-0.5-2.9-1.2-3.5-4.1-3.5c-0.4,0-1.2,0.6-1.3,1c-0.2,1.1,0,2.3,0,3.4
	c-0.2,3.6,0.8,4.2,4,4.7C316.3,430.9,316.7,430.6,316.6,428.8z M297.7,210.8c-2.6-0.1-3.3,0.5-3.4,3c-0.1,1.1,0.4,1.5,1.4,1.4
	c2.6-0.3,5.3-0.6,7.9-0.9c0.7-0.1,1.7-0.1,1.7-1.3s-1-1.4-1.8-1.5C301.6,211.2,299.6,211,297.7,210.8L297.7,210.8z"/>
<path class="st1" d="M489.2,374.3c0-1.4-0.2-2.8-0.3-4.2c-0.1-1.1-0.6-1.6-1.7-1.6s-1.2,0.9-1.2,1.7c0.1,2.3,0.2,4.7,0.3,7
	c0.1,1.4,0.1,2.8,0.2,4.2c0.2,1.4,1.4,2,2.5,1.1c0.4-0.3,0.6-1,0.6-1.6C489.5,378.7,489.3,376.5,489.2,374.3z"/>
<path class="st1" d="M299.2,229.9c1.7-0.2,3-0.2,4.2-0.6c0.9-0.3,1.8-0.9,2.3-1.6c2.1-3.1,1.3-6.2-1.9-8.1c-3.4-2.1-6.8-1.8-9.8,0.9
	c-1.1,1-1.5,2.3-1.3,3.8C293.2,227.4,297,230.4,299.2,229.9L299.2,229.9z"/>
<path class="st1" d="M283.5,251.6c0,1.7,1,2.9,1.9,2.6c0.6-0.2,1.1-1,1.3-1.7c0.2-1.1-0.7-2.1-1.7-1.9
	C284.3,250.7,283.8,251.3,283.5,251.6L283.5,251.6z"/>
<path class="st1" d="M263.9,264c3.6,0,6.9,0.1,10-0.1c0.7,0,1.9-0.9,2-1.5c0.2-1.3-1-1.3-2-1.2c-0.3,0-0.7,0.1-1,0.2
	c-2.9,0.1-5.9,0.4-8.8,0.4c-2.3,0-4.5-0.5-6.8-0.8c-1.7-0.2-3.3,0.6-3.3,1.6s1.6,1.8,3.3,1.8C259.7,264.2,262,264.1,263.9,264
	L263.9,264z"/>
<g>
	<path class="st0" d="M409.1,381.9c-1.5,0.1-2.7,0.1-3.8,0.4c-0.6,0.2-1.2,0.9-1.6,1.5c-1.1,1.9-2.2,4-3.3,5.7c-1,1.7-2-0.5-1.8-1.1
		c0.4-1.2,1.2-2.3,1.6-3.4c0.6-1.5,3.7-10.2,4.1-12.1c0.2-0.6,0.1-1.5,0.4-1.9c0.5-0.7,1.3-1.3,2.1-1.5c1.1-0.2,1.9,0.5,2.2,1.6
		c0.9,3.2,1.9,6.4,2.9,9.6c0.8,2.3,2.3,6.1,2.8,7.9c0.6,1.7-1.6,1.8-2,0.8s-0.5-1.1-0.7-1.6c-0.7-1.7-1.4-3.5-2.2-5.1
		C409.8,382.3,409.3,382,409.1,381.9z M405.2,379.2c0.4,0.5,3.3,0.4,2.7-0.7c-0.2-0.9-0.7-1.7-1-2.5
		C406.4,376.6,405.7,378.4,405.2,379.2z"/>
	<path class="st0" d="M467.8,370.4c0-1,0.4-1.9,1.6-2c2.3,0,4.7,0.1,7,0.1c0.9,0,1.5,0.6,1.2,1.4c-0.2,0.6-0.8,1.3-1.4,1.4
		c-1.4,0.3-2.8,0.1-4.2,0.3c-0.5,0.1-0.4,2,0.1,2.1c0.5,0.2,1.3-0.1,1.8,0.1s1.1,0.8,1.2,1.3s-0.5,1.2-0.9,1.5
		c-0.5,0.3-1.3,0.3-2,0.3c-1,0-1.9,0-2,1.4c-0.1,1.7,0.4,2.9,1.8,3.1c1.6,0.2,3.3,0.2,5,0.2c0.6,0,1.2-0.2,1.8,0
		c0.4,0.1,0.9,0.6,1,1c0,0.4-0.4,1.1-0.8,1.2c-1.1,0.3-2.4,0.6-3.5,0.6c-1.8,0.1-3.6,0.2-5.4,0.1c-1.7-0.1-2.4-1.1-2.6-3.1
		C467.4,380.5,467.8,372.9,467.8,370.4z"/>
	<path class="st0" d="M520.3,367.5c0.9,0,1.7-0.1,2.6,0c1.1,0.1,2,1.2,1.8,2c-0.3,1.1-0.9,1.2-2.2,0.9c-1.4-0.4-2.9-0.1-4.3,0.1
		c-0.4,0-0.9,0.8-0.9,1.3c0,0.4,0.6,0.9,1.1,1c0.8,0.2,1.8,0,2.6,0.2c0.5,0.1,1.2,0.6,1.3,0.9c0,0.4-0.4,1.2-0.9,1.4
		c-0.6,0.3-1.4,0.3-2.1,0.5c-0.8,0.1-1.8,0-1.9,1.3c-0.1,1.2,0.8,2.5,1.9,2.7c1.4,0.2,2.8,0.2,4.2,0.3c0.6,0,1.3-0.2,1.8,0
		c0.4,0.2,0.3,2,0,2c-2.7,0.3-5.5,0.5-8.2,0.7c-1.3,0.1-2.2-0.7-2.3-2c-0.2-3.4-0.5-6.8-0.5-10.2c0-2.3,0.6-2.8,3-3
		C518.1,367.4,519.2,367.5,520.3,367.5L520.3,367.5z"/>
	<path class="st0" d="M508.6,377.7c0,1.1,0.1,2.2-0.1,3.2c-0.1,0.5-0.7,1.2-1.2,1.4c-0.3,0.1-1.2-0.5-1.3-0.9
		c-0.3-0.9-0.4-1.8-0.3-2.7c0.1-2.4-0.2-2.6-2.5-2.5c-0.4,0-2.2,0.2-2.6,0.2c-2.3,0.1-0.7,5-1.1,5.7c-0.1,0.3-1.1,0.5-1.4,0.3
		c-0.6-0.5-1.3-1.2-1.5-1.9c-0.4-1.5-0.6-3-0.6-4.5c0-2.2,0.1-4.4,0.3-6.6c0-0.4,0.7-1.1,1.1-1.1s1.1,0.5,1.3,1
		c0.3,0.6,0.3,1.3,0.4,2c0.1,1.6,1,2.1,2.4,2h0.2c3-0.1,3-0.2,3.5-3.1c0.1-0.5-0.2-1.7,1.1-1.5C509,368.9,508.7,377.7,508.6,377.7
		L508.6,377.7z"/>
	<path class="st0" d="M418.3,371.3c0.2-0.5,2.3,0,2.4,0.6c0.5,3,0.9,6.1,1.3,9.2c0.2,1.3,1.6,2.7,2.3,2.3c0.9-0.6,1.9-7.4,1.8-9.8
		c0-1.1,0.4-1.9,1.5-2c1-0.1,2.4,1.4,2.1,2.5c-0.8,3.5-0.9,7-1.8,10.5c-0.4,1.3-1.9,2.4-3.5,2.6c-1.7,0.2-2.8-0.5-3.7-1.8
		C418.7,382.1,418,371.9,418.3,371.3L418.3,371.3z"/>
	<path class="st0" d="M442.5,368.5c2.4,0.6,1.1,3.5-1.3,3.6s-1.3,1.7-0.2,3c0.9,1.2,1.9,2.4,2.8,3.6c1.7,2.4,0.5,7.1-2.7,7.3
		c-3.3,0.1-3.9-0.9-5.5-2.7c-1.6-1.9-1.4-2-0.1-2.8c1.4-0.9,1.2-0.2,1.7,0s0.9,0.8,1.3,1.2c0.7,0.6,1.3,1.6,2.3,0.9
		c1.1-0.8,0.6-1.8,0-2.7c-0.9-1.3-1.8-2.5-2.8-3.6c-2-2.3-2-5.1,0.4-6.4C440.9,368.6,441.4,368.2,442.5,368.5L442.5,368.5z"/>
	<path class="st0" d="M454,385.4c-1.9,0.2-2.5-0.7-2.5-2.6c0-3.1-0.2-6.3-0.3-9.4c0-1.1,0-2.3,0.2-3.4c0.1-1,0.8-1.6,1.8-1.4
		c1,0.1,1.1,0.9,1.2,1.8c0,3.1,0.1,6.3,0.2,9.4c0.1,2.1,0.5,2.1,2.5,2c1.6-0.1,3.3,0.1,4.9,0.3c0.5,0.1,0.4,2.5-0.2,2.5
		C459.2,385,456.6,385.2,454,385.4L454,385.4z"/>
	<path class="st0" d="M489.6,380.9c0,0.5-0.2,1.3-0.6,1.6c-1.1,0.9-2.3,0.4-2.5-1.1c-0.2-1.4-0.2-2.8-0.2-4.2
		c-0.1-2.3-0.2-4.7-0.3-7c0-0.8,0.1-1.7,1.2-1.7c1,0,1.6,0.6,1.7,1.6c0.1,1.4,0.2,2.8,0.4,4.2C489.2,374.3,489.5,378.7,489.6,380.9z
		"/>
	<path class="st0" d="M495.6,258.7c-4.3-0.1-8.7-0.4-13-0.5c-9-0.3-34.1-0.5-37.6-0.3c-0.3,0-0.7,0-1-0.1c-1.7-0.7-1.2-2.2-1.2-3.5
		c0-1.4,0.5-2.6,1.9-3c0.9-0.3,1.6,0.4,1.4,1.4c-0.4,2,0.7,2.5,2.3,2.5c3.2,0.1,6.4,0.1,9.6,0.2c3.8,0.1,7.6,0.4,11.4,0.5
		c5.2,0.1,10.3,0.1,15.5,0.2c4.6,0.1,9.2,0.5,13.9,0.6c2.2,0.1,4.4,0,6.6-0.1c1.3-0.1,4.4,0.7,4.4-1.3s0-3,1.2-3c1.2,0,1.1,1,1,1.6
		c-0.1,1.4-0.5,2.8-0.8,4.1C510.8,259.6,499.9,258.8,495.6,258.7L495.6,258.7z"/>
	<path class="st0" d="M448.5,212.7c-0.1,1.5-1.3,1.9-2.4,1.8s-1.2-1-1.3-1.6c-0.2-1,0.5-2,1.5-1.9C447,211,448.6,211.1,448.5,212.7
		L448.5,212.7z"/>
	<path class="st0" d="M505.7,213.3c-0.2-0.9,0.5-1.4,1.5-1.4c1,0.1,1.7,0.6,1.6,1.6c-0.1,0.7-0.4,2.1-1.6,2
		C505.9,215.5,505.9,214.2,505.7,213.3L505.7,213.3z"/>
	<path class="st0" d="M303.5,274.5c-1.3,0-2.7,0.1-4-0.1c-0.6-0.1-0.5-2.3,0-2.3c2.8,0.1,5.6,0.3,8.4,0.6c0.4,0,0.4,1.5,0,1.6
		C306.4,274.5,305,274.5,303.5,274.5C303.5,274.6,303.5,274.6,303.5,274.5L303.5,274.5z"/>
	<path class="st0" d="M659.1,277.3c0.4,1.4-1.5,2.5-2.8,3c-4.1,1.6-8.4,2-12.7,2.8c-3.8,0.7-7.6,1.7-11.4,2.5
		c-2.8,0.6-5.6,1.3-8.4,1.9c-3.3,0.7-6.6,1.1-9.9,1.8c-1.8,0.4-3.6,0.9-5.4,1.5s-1.9,1.1-3.2-1.8c-1.2-2.9-13-27.8-13.8-30.7
		c-0.3-1.1,0.4-1.7,1.3-1.9c2.3-0.7,4.5-1.3,6.8-1.9c2.5-0.6,5-1,7.5-1.5c8-1.6,16-3.2,24-4.8c3.2-0.6,12.3-2.6,13.6-1.3
		c1.3,1.4,4.8,11.3,6.9,15.7c1.8,3.8,4.1,7.4,6,11.1C658.3,275,658.7,275.8,659.1,277.3L659.1,277.3z M641.1,248.9
		c-2.4,0.4-5.2,1-8,1.5c-4.6,0.8-9.1,1.5-13.7,2.4c-2.4,0.5-4.8,1.3-7.2,1.8c-3.6,0.8-7.2,1.5-10.8,2.2c-1.5,0.3-3,0.8-4.5,1.2
		c-1.3,0.3-1.6,0.9-1.3,2.4c0.7,2.9,2.2,5.4,3.5,8.1c3,5.9,6.5,11.6,8.5,18c0.1,0.5,1,1.1,1.4,1c3.2-0.4,6.3-0.9,9.5-1.5
		c2.3-0.4,4.5-1.2,6.8-1.7c3.7-0.9,7.4-1.6,11.1-2.5c0.7-0.2,12-2.3,16.8-3.6c1.8-0.5,2.2-1,1.8-2.7c-0.5-1.8-1.3-3.5-2.1-5.2
		c-1.1-2.1-2.6-4.1-3.5-6.3c-2-4.4-3.8-8.8-5.5-13.3C643.3,249.1,642.5,249.1,641.1,248.9L641.1,248.9z"/>
	<path class="st0" d="M660.5,256.7c1,0.7,1.1,1,1.3,1.6c0.8,1.9,1.4,3.9,2.2,5.8c0.3,0.9,0.1,1.5-0.8,1.7c-1.5,0.3-3,0.4-4.6,0.5
		c-0.3,0-0.9-0.4-1-0.8c-0.9-1.9-1.8-3.9-2.4-5.9c-0.5-1.6,0.1-2.3,1.7-2.3C658.6,257.2,659.6,256,660.5,256.7L660.5,256.7z
		 M658,260.5c0.8,1,0.6,2.6,1.6,3c0.4,0.2,1.3-0.5,1.7-0.6c-0.3-0.9-0.4-1.8-0.9-2.6c-0.2-0.3-0.9-0.5-1.4-0.5
		C658.8,259.7,658.5,260.1,658,260.5L658,260.5z"/>
	<path class="st0" d="M299.2,229.9c-2.2,0.4-6.1-2.6-6.4-5.6c-0.2-1.5,0.2-2.8,1.3-3.8c3-2.7,6.3-3,9.8-0.9c3.2,2,4,5,1.9,8.1
		c-0.5,0.8-1.5,1.4-2.3,1.6C302.2,229.8,300.9,229.7,299.2,229.9L299.2,229.9z M299.6,227.2c1-0.4,2.2-0.7,3.1-1.3
		c0.6-0.4,1.1-1.3,1.2-2.1c0.1-1-0.7-1.6-1.7-2c-0.9-0.3-1.7-1-2.6-1c-1-0.1-2.1,0.1-2.9,0.6c-0.6,0.4-1,1.5-0.9,2.2
		C295.9,225.6,297.6,227,299.6,227.2z"/>
	<path class="st0" d="M283.5,251.6c0.3-0.2,0.8-0.8,1.4-1c1-0.2,1.9,0.8,1.7,1.9c-0.1,0.6-0.7,1.5-1.3,1.7
		C284.5,254.5,283.5,253.3,283.5,251.6L283.5,251.6z"/>
	<path class="st0" d="M314.8,252c0.4,1-1,2.1-2.2,1.9s-1.2-1.1-1.2-1.7c0-0.5,0.3-1.2,1.1-1.5C313.4,250.4,314.3,251,314.8,252
		L314.8,252z"/>
	<path class="st0" d="M303,251c0,1.2-0.4,1.9-1.5,1.7c-1.1-0.1-1.3-0.5-1.4-1.7s0.2-1.2,1.3-1.2C302.4,249.9,303,249.8,303,251z"/>
	<path class="st0" d="M295.2,252.4c-0.1,0.9-1.3,1.4-1.6,1.3c-0.5-0.1-1.4-0.4-1.3-1.3s0.2-1.4,1.1-1.5
		C294.4,250.8,295.3,251.5,295.2,252.4z"/>
	<path class="st0" d="M263.9,264c-1.9,0.1-4.2,0.2-6.6,0.3c-1.7,0.1-3.2-0.8-3.3-1.8c0-0.9,1.6-1.7,3.3-1.6c2.3,0.2,4.5,0.7,6.8,0.8
		c2.9,0.1,5.9-0.2,8.8-0.4c0.3,0,0.7-0.1,1-0.2c1-0.1,2.2-0.2,2,1.2c-0.1,0.6-1.3,1.5-2,1.5C270.8,264.1,267.6,264,263.9,264
		L263.9,264z"/>
	<path class="st0" d="M290.1,262.5c0.1,1.1-1.2,1.2-1.4,1.1c-0.6-0.2-1.5-0.2-1.7-1.2c-0.1-0.9,0.8-1.2,1-1.2
		C288.7,261.4,289.9,261.4,290.1,262.5L290.1,262.5z"/>
	<path class="st0" d="M282.8,261.9c-0.1,0.8-1.1,1.2-1.4,1.1c-0.5-0.2-1.5-0.4-1.4-1.1s0.7-0.9,1-0.9
		C281.6,261.1,282.9,261.2,282.8,261.9z"/>
</g>
<path class="st1" d="M653.2,278c1.8-0.5,2.2-1,1.8-2.7c-0.5-1.8-1.3-3.5-2.1-5.2c-1.1-2.1-2.6-4.1-3.5-6.3c-2-4.4-3.8-8.8-5.5-13.3
	c-0.5-1.4-1.3-1.5-2.7-1.6c-2.4,0.4-5.2,1-8,1.5c-4.6,0.8-9.1,1.5-13.7,2.4c-2.4,0.5-4.8,1.3-7.2,1.8c-3.6,0.8-7.2,1.5-10.8,2.2
	c-1.5,0.3-3,0.8-4.5,1.2c-1.3,0.3-1.6,0.9-1.3,2.4c0.7,2.9,2.2,5.4,3.5,8.1c3,5.9,6.5,11.6,8.5,18c0.1,0.5,1,1.1,1.4,1
	c3.2-0.4,6.3-0.9,9.5-1.5c2.3-0.4,4.5-1.2,6.8-1.7c3.7-0.9,7.4-1.6,11.1-2.5"/>
<path class="st1" d="M299.6,227.2c-1.9-0.2-3.7-1.7-3.8-3.5c-0.1-0.7,0.3-1.8,0.9-2.2c0.8-0.5,1.9-0.7,2.9-0.6
	c0.9,0.1,1.7,0.7,2.6,1c1,0.3,1.8,1,1.7,2c-0.1,0.7-0.6,1.7-1.2,2.1C301.8,226.5,300.6,226.8,299.6,227.2z"/>
</svg>
